<?xml version="1.0" encoding="UTF-8"?>
<svg id="Layer_1" data-name="Layer 1" xmlns="http://www.w3.org/2000/svg" viewBox="0 0 5000 5000">
  <defs>
    <style>
      .cls-1 {
        fill: #6b4a37;
      }

      .cls-1, .cls-2, .cls-3, .cls-4, .cls-5, .cls-6, .cls-7, .cls-8, .cls-9, .cls-10, .cls-11, .cls-12, .cls-13, .cls-14, .cls-15, .cls-16, .cls-17, .cls-18, .cls-19, .cls-20, .cls-21, .cls-22, .cls-23, .cls-24, .cls-25, .cls-26, .cls-27, .cls-28 {
        stroke-width: 0px;
      }

      .cls-2 {
        fill: #ff9872;
      }

      .cls-3 {
        fill: #d8c3f4;
      }

      .cls-4 {
        fill: #008f96;
      }

      .cls-5 {
        fill: #d0603e;
      }

      .cls-6 {
        fill: #e94e1b;
      }

      .cls-7 {
        fill: #693c11;
      }

      .cls-8 {
        fill: #573928;
      }

      .cls-9 {
        fill: #ffcd6b;
      }

      .cls-10 {
        fill: #7e4e24;
      }

      .cls-11 {
        fill: #ff9b76;
      }

      .cls-12 {
        fill: #926037;
      }

      .cls-13 {
        fill: #814f2c;
      }

      .cls-14 {
        fill: #ffba94;
      }

      .cls-15 {
        fill: #e1961e;
      }

      .cls-16 {
        fill: #00b6b6;
      }

      .cls-17 {
        fill: #ff8e68;
      }

      .cls-18 {
        fill: #ff7657;
      }

      .cls-19 {
        fill: #321a0d;
      }

      .cls-20 {
        fill: #71401a;
      }

      .cls-21 {
        fill: #f9b234;
      }

      .cls-22 {
        fill: #8d5300;
      }

      .cls-29 {
        fill: none;
        stroke: #573928;
        stroke-dasharray: 0 0 2.11 2.11;
        stroke-linecap: round;
        stroke-linejoin: round;
        stroke-width: .53px;
      }

      .cls-23 {
        fill: #ca9d66;
      }

      .cls-24 {
        fill: #f27e52;
      }

      .cls-25 {
        fill: #432918;
      }

      .cls-26 {
        fill: #fff;
      }

      .cls-27 {
        fill: #ffb6a5;
      }

      .cls-28 {
        fill: #007b7b;
      }
    </style>
  </defs>
  <g>
    <path class="cls-26" d="M3130.28,2145.49v22.23h-9.46c.49,4.86.65,9.03.65,12.5,0,5.73-5.22,18.06-7.34,21.71-21.03,20.14-52,32.3-75.97,32.3-20.87,0-35.38-7.64-44.83-18.75-10.11-11.98-14.18-28.83-14.18-48.45,0-17.36,6.2-40.81,15.32-57.3l6.2,2.95c-6.85,17.71-9.94,31.95-9.94,43.58,0,14.76,4.56,28.48,13.04,37.85,9.94,10.94,24.13,16.32,39.45,16.32s32.28-4.69,52-14.93c7.34-4.34,13.37-8.51,14.67-11.98-3.75-8.33-21.52-15.8-47.44-15.8l-.98-2.43,11.25-19.8h57.55Z"/>
    <path class="cls-26" d="M3255.81,2167.71h-3.26c-19.89,0-30.65-11.81-42.22-28.13-5.38-7.47-10.43-14.59-14.35-19.27h-.65c-.16,27.09-14.51,47.41-60.65,47.41h-4.4c-8.97,0-11.41-6.95-11.41-11.63,0-4.17,2.61-10.59,11.41-10.59h6.52c13.2,0,28.85-2.43,39.45-10.07,3.26-2.26,7.99-6.08,7.99-8.51,0-3.65-1.47-7.64-3.26-11.81-6.85-15.63-22.82-34.21-40.27-52.79-4.4-4.86-7.99-8.86-10.27-11.81-.49-2.95-1.14-6.25-1.14-9.55,0-4.86,1.63-9.72,4.4-14.93,1.3-2.43,3.75-4.86,5.87-6.42,16.96-11.63,55.43-25.7,100.26-40.63l.65,1.04c-3.42,7.29-7.66,14.41-12.55,21.36-9.78,2.6-23.8,7.64-37.33,12.85-19.56,7.81-37.99,15.63-49.4,22.05v.52c8.8,6.08,18.26,10.42,25.11,13.54l-4.89,8.68c17.44,16.84,37.99,41.15,60.16,68.76,9.13,11.46,18.42,17.71,31.46,17.71h2.77v22.23Z"/>
    <path class="cls-26" d="M3387.2,2093.39c1.96,13.02,2.61,23.62,2.61,30.91,0,7.81-2.93,17.71-5.87,23.79-6.2,10.94-14.67,19.1-24.13,19.1-7.01,0-14.51-5.56-20.38-14.41h-1.3c-7.34,8.51-16.46,14.93-28.53,14.93-8.97,0-14.67-4.51-15.65-14.76h-.65c-9.95,12.33-23.64,14.76-34.72,14.76h-2.77c-8.97,0-11.41-6.95-11.41-11.63,0-4.17,2.61-10.59,11.41-10.59h5.54c14.83-.17,26.57-4.17,34.4-16.15l8.97-13.72,12.55-4.69.65.87c-6.52,11.11-11.09,19.8-11.09,25s3.42,8.68,8.48,8.68c4.73,0,10.11-1.74,14.51-5.04,5.71-4.51,6.52-9.55,11.57-27.61l9.78-6.08.98.69c-1.3,5.56-2.12,12.16-2.12,17.02,0,13.2,9.13,19.97,16.95,19.97,4.57,0,8.64-2.6,8.64-7.81,0-6.77-1.96-17.89-4.08-28.13,4.56-5.73,9.46-10.94,14.67-15.63l.98.52ZM3331.12,2081.41c-6.68-6.77-12.55-12.33-19.07-18.06,4.24-6.25,8.8-11.98,12.88-16.5,6.68,5.56,12.23,11.29,18.58,18.58-4.56,6.95-7.83,11.46-12.39,15.98ZM3339.93,2044.42c-6.68-6.77-12.55-12.33-19.07-18.06,4.24-6.25,8.8-11.98,12.88-16.5,6.68,5.56,12.23,11.29,18.58,18.58-4.56,6.95-7.83,11.46-12.39,15.98ZM3362.59,2079.15c-6.68-6.77-12.55-12.33-19.07-18.06,4.24-6.25,8.8-11.98,12.88-16.5,6.68,5.56,12.23,11.29,18.58,18.58-4.56,6.95-7.83,11.46-12.39,15.98Z"/>
    <path class="cls-26" d="M3441.33,2107.98c9.29,23.79,17.77,37.51,36.68,37.51h2.93v22.23h-3.42c-7.17,0-12.39-1.56-16.46-5.56h-.65c.16,2.08.33,4.17.33,6.08,0,8.16-2.12,18.58-6.52,26.92-12.88,24.14-26.9,34.56-38.96,34.56s-27.22-5.9-40.76-13.54l2.45-5.9c4.4,2.26,10.43,3.82,18.75,3.82,21.84,0,50.54-26.39,54.12-52.09-.82-2.08-2.28-4.86-4.4-7.81-6.36-9.55-10.43-17.54-14.18-25.87,3.26-7.99,6.2-14.41,8.97-20.14l1.14-.17ZM3427.14,2047.55c6.68,5.21,13.21,11.46,19.56,18.58-3.59,6.25-7.99,11.98-13.53,17.02-6.36-6.42-12.72-11.98-19.24-17.89,4.4-6.25,8.8-12.33,13.21-17.71Z"/>
    <path class="cls-26" d="M3483.71,2145.49c13.86,0,24.94-.52,32.12-3.3,5.71-2.26,9.29-4.69,9.29-7.64,0-8.16-7.83-25.18-16.3-42.89,3.91-7.47,7.99-14.06,12.23-19.62h.81c7.5,14.06,16.3,35.77,16.3,52.96,0,13.02-4.89,23.09-11.41,32.3-7.34,7.81-18.91,10.42-43.85,10.42h-1.96c-8.97,0-11.41-6.95-11.41-11.63,0-4.17,2.61-10.59,11.41-10.59h2.77ZM3500.34,2228.84c-6.68-6.77-12.55-12.33-19.07-18.06,4.24-6.25,8.8-11.98,12.88-16.5,6.68,5.56,12.23,11.29,18.58,18.58-4.56,6.95-7.83,11.46-12.39,15.98ZM3523.16,2263.39c-6.68-6.77-12.55-12.33-19.07-18.06,4.24-6.25,8.8-11.98,12.88-16.5,6.68,5.56,12.23,11.29,18.58,18.58-4.56,6.95-7.83,11.46-12.39,15.98ZM3531.8,2226.58c-6.68-6.77-12.55-12.33-19.07-18.06,4.24-6.25,8.8-11.98,12.88-16.5,6.68,5.56,12.23,11.29,18.58,18.58-4.56,6.95-7.83,11.46-12.39,15.98Z"/>
    <path class="cls-26" d="M3662.22,2053.28l2.28-.87c10.11,10.07,40.76,30.04,46.3,49.66,2.12,7.47,2.45,13.02,2.45,19.45,0,10.59-3.59,25.7-8.8,32.3-10.11,11.46-21.85,15.98-33.75,15.98-8.15,0-14.67-1.74-19.56-5.21-11.41-7.81-16.79-21.71-16.79-38.55,0-11.63,5.05-24.31,9.94-33.34,3.75-6.95,8.64-13.89,16.14-22.05,0-5.73.98-11.63,1.79-17.36ZM3644.45,2123.26c0,12.85,13.21,23.44,27.22,23.44,9.46,0,17.77-3.47,25.43-9.38,5.22-3.99,7.17-7.81,7.17-11.46,0-5.9-4.4-13.02-8.8-18.93-6.68-8.86-16.63-16.67-26.25-22.57-15.32,13.02-24.78,25.87-24.78,38.9Z"/>
    <path class="cls-26" d="M3851.81,2167.71h-3.1c-14.67,0-26.9-6.6-33.26-28.3h-.82c-1.3,6.6-4.73,12.16-11.74,16.67-10.76,6.95-21.85,11.63-32.77,11.63-18.26,0-28.37-11.81-28.37-32.12,0-4.34.16-8.51.49-12.85l6.36-.52c.65,14.41,7.34,23.27,22.99,23.27,8.64,0,18.91-3.99,26.57-8.68,6.03-3.65,10.6-8.86,10.6-13.02,0-11.81-5.87-34.9-13.53-64.6,3.75-6.08,7.34-12.33,11.57-17.89l.98.69c6.03,25,11.09,51.75,15.49,77.27,2.93,17.19,13.53,26.22,25.76,26.22h2.77v22.23Z"/>
    <path class="cls-26" d="M3854.58,2145.49c13.86,0,24.94-.52,32.12-3.3,5.71-2.26,9.29-4.69,9.29-7.64,0-8.16-7.83-25.18-16.3-42.89,3.91-7.47,7.99-14.06,12.23-19.62h.81c7.5,14.06,16.3,35.77,16.3,52.96,0,13.02-4.89,23.09-11.41,32.3-7.34,7.81-18.91,10.42-43.85,10.42h-1.96c-8.97,0-11.41-6.95-11.41-11.63,0-4.17,2.61-10.59,11.41-10.59h2.77ZM3877.24,2016.29c6.68,5.21,13.21,11.46,19.56,18.58-3.59,6.25-7.99,11.98-13.53,17.02-6.36-6.42-12.72-11.98-19.24-17.89,4.4-6.25,8.8-12.33,13.21-17.71Z"/>
    <path class="cls-26" d="M3977.66,2149.48c-19.07,0-35.54-9.55-35.54-32.65,0-11.46,4.08-21.18,10.43-29.87,7.5-8.68,15.65-14.41,23.31-14.41,9.46,0,18.26,7.12,24.62,19.62,6.2,11.98,10.43,28.48,10.43,47.75,0,16.15-3.75,31.43-12.39,45.67-14.51,23.44-28.37,32.99-41.9,32.99-15,0-30.49-5.21-46.79-17.02l2.45-5.56c7.99,4.34,15.81,5.9,23.8,5.9,16.46,0,32.93-8.86,47.93-26.57,7.34-8.51,14.18-18.75,15.32-29-7.01,2.08-14.35,3.13-21.68,3.13ZM3970.49,2094.43c-7.66,0-18.26,9.03-18.26,15.45,0,10.77,14.35,18.41,27.71,18.41,6.2,0,12.55-.69,18.42-2.26-4.4-17.54-13.86-31.6-27.88-31.6Z"/>
    <path class="cls-26" d="M4076.13,2107.98c9.29,23.79,17.77,37.51,36.68,37.51h2.93v22.23h-3.42c-7.17,0-12.39-1.56-16.46-5.56h-.65c.16,2.08.33,4.17.33,6.08,0,8.16-2.12,18.58-6.52,26.92-12.88,24.14-26.9,34.56-38.96,34.56s-27.22-5.9-40.76-13.54l2.45-5.9c4.4,2.26,10.43,3.82,18.75,3.82,21.84,0,50.54-26.39,54.12-52.09-.82-2.08-2.28-4.86-4.4-7.81-6.36-9.55-10.43-17.54-14.18-25.87,3.26-7.99,6.2-14.41,8.97-20.14l1.14-.17Z"/>
    <path class="cls-26" d="M4118.51,2145.49c13.86,0,24.94-.52,32.12-3.3,5.71-2.26,9.29-4.69,9.29-7.64,0-8.16-7.83-25.18-16.3-42.89,3.91-7.47,7.99-14.06,12.23-19.62h.81c7.5,14.06,16.3,35.77,16.3,52.96,0,13.02-4.89,23.09-11.41,32.3-7.34,7.81-18.91,10.42-43.85,10.42h-1.96c-8.97,0-11.41-6.95-11.41-11.63,0-4.17,2.61-10.59,11.41-10.59h2.77ZM4135.14,2228.84c-6.68-6.77-12.55-12.33-19.07-18.06,4.24-6.25,8.8-11.98,12.88-16.5,6.68,5.56,12.23,11.29,18.58,18.58-4.56,6.95-7.83,11.46-12.39,15.98ZM4157.97,2263.39c-6.68-6.77-12.55-12.33-19.07-18.06,4.24-6.25,8.8-11.98,12.88-16.5,6.68,5.56,12.23,11.29,18.58,18.58-4.56,6.95-7.83,11.46-12.39,15.98ZM4166.61,2226.58c-6.68-6.77-12.55-12.33-19.07-18.06,4.24-6.25,8.8-11.98,12.88-16.5,6.68,5.56,12.23,11.29,18.58,18.58-4.56,6.95-7.83,11.46-12.39,15.98Z"/>
  </g>
  <g>
    <circle class="cls-3" cx="1307.73" cy="2380.76" r="750.68"/>
    <path class="cls-26" d="M4930,1212.56v2180h-2763.69c-180.84-79.31-348.13-189.69-449.78-343.04-12.17-18.04-23.22-36.83-33.38-56.13l23.22-14.66,12.8-8.02,90.61-57.13,20.21-12.65h.13l151.22-95.47s293.54-16.41,453.04-263.23c120.98-187.3,156.49-485.49,342.73-695.97,59.11-67.03,133.65-125.16,230.91-168.01,403.47-177.53,693.87-41.47,1048.9-157.86,237.44-77.93,349.76-221.38,398.08-307.83h475.01Z"/>
    <path class="cls-26" d="M2358.08,1512.48h545.5s-27.19-110.55-126.86-134.11c-99.68-23.56-161.3,36.25-161.3,36.25,0,0-50.74-69.77-154.95-69.77s-170.36,113.27-167.64,167.64h65.24Z"/>
    <path class="cls-26" d="M1198.4,1560.65h272.75s-13.59-55.27-63.43-67.06c-49.84-11.78-80.65,18.12-80.65,18.12,0,0-25.37-34.89-77.48-34.89s-85.18,56.63-83.82,83.82h32.62Z"/>
    <path class="cls-26" d="M150.87,3038.1h480.47s-23.94-97.37-111.74-118.12c-87.79-20.75-142.07,31.93-142.07,31.93,0,0-44.69-61.46-136.48-61.46s-150.05,99.76-147.65,147.65h57.47Z"/>
  </g>
  <g>
    <path class="cls-2" d="M771.05,1992.5s81.33,297.3,133.61,371.25l76.37-54.81-144.18-357.2s-1.57-43.56-12.1-81.58c-10.54-38.03-10.65-70.36-18.3-74.44-7.65-4.07-13.29,5.63-13.29,5.63l4.08,60.61s-13.31,5.91-29.58,13.36c-16.28,7.46-31.8,14.38-30.27,29.92,1.54,15.54,7.43,24.54,12.26,27.72,4.83,3.18,7.94-.58,7.94-.58,0,0-2.96,12.75-.13,30.53,2.83,17.78,13.58,29.6,13.58,29.6Z"/>
    <path class="cls-25" d="M761.91,1989.41s72.84-44.27,81.7-42.27c8.85,1.99,2.1,12.35,2.1,12.35,0,0,6.17-1.05,9.37,5.26,3.19,6.31-.74,11.81-.74,11.81,0,0,4.7-.42,5.63,7.54.93,7.96-79.64,43.84-86.04,42.72-6.4-1.12-2.92-10.6-2.92-10.6,0,0-2.06,4.18-6.73-1.5-4.67-5.68.48-13.26.48-13.26,0,0-4.83,2.57-5.61-2.15-.78-4.72-.04-8.19,2.78-9.88Z"/>
    <path class="cls-13" d="M951.39,2300.37l-75.05,50.83s49.2,65.37,80.6,86.51c31.4,21.14,75.54-33.25,75.54-33.25l-81.08-104.09Z"/>
    <polygon class="cls-24" points="991.07 2377.59 994.93 2430.3 1074.75 2417.45 1064.61 2382.23 991.07 2377.59"/>
    <polygon class="cls-14" points="1727.39 2253.97 1723.1 2283.75 1714.72 2342.23 1540.88 2316.92 1545.31 2291.45 1559.05 2211.71 1727.39 2253.97"/>
    <path class="cls-24" d="M1727.39,2253.97l-4.29,29.77c-59.9,22.51-140.21,13.69-177.79,7.7l13.74-79.74,168.34,42.26Z"/>
    <path class="cls-14" d="M2039.53,1997.77c-10.01,158.84-163.6,278.45-343.01,267.14-179.41-11.31-295.44-100.43-285.42-259.4,8.3-131.72,135.91-258.19,269.17-295.66,13.52-3.84,27.25-6.73,40.78-8.56,13.81-2.08,27.68-2.95,41.34-2.62,179.75,3.68,287.17,140.15,277.15,299.12Z"/>
    <path class="cls-11" d="M1854.7,1921.47l-187.11,264.09s-39.4-30.25-19.52-128.64c19.75-98.41,110.86-150.2,110.86-150.2l-78.66-196.88c13.52-3.84,27.25-6.73,40.78-8.56l133.65,220.2Z"/>
    <path class="cls-24" d="M1549.07,1777.61l-68.03,30.68s-30.74-26.53-44.85-2.83c-10.71,18.01,11.16,43.33,44.2,43.5,33.04.17,67.22-63.3,68.68-71.35Z"/>
    <path class="cls-26" d="M1460.67,1910.95s74.34,51.63,120.67,76.58c0,0-44.9,104.46-100.42,88.51-55.52-15.95-20.25-165.09-20.25-165.09Z"/>
    <path class="cls-25" d="M1622.88,1861.09c-20,17.63-40.98,26.52-46.86,19.85-5.88-6.67,5.57-26.36,25.58-43.99,20-17.63,40.98-26.52,46.86-19.85,5.88,6.67-5.57,26.36-25.58,43.99Z"/>
    <path class="cls-12" d="M1672.63,1666.68l131.98,251.58s-125.45,52.45-146.62,160.32c-21.17,107.88,20.86,201.05,105.81,213.59,61.02,9.01,279.4-32.69,351.68-199.13,72.28-166.44,10.2-344.23-119.92-422.85-130.12-78.61-310.76-14.25-322.93-3.52Z"/>
    <path class="cls-8" d="M1939.85,2120.77c-3.74,59.29-54.83,104.32-114.11,100.58-59.29-3.74-104.32-54.83-100.58-114.11,3.74-59.29,54.83-104.32,114.11-100.58,59.29,3.74,104.32,54.83,100.58,114.11Z"/>
    <path class="cls-29" d="M1956,2121.79c-4.53,71.8-63.48,126.53-131.69,122.23-68.2-4.3-119.82-65.99-115.3-137.79,4.53-71.8,63.48-126.53,131.69-122.23,68.2,4.3,119.82,65.99,115.3,137.79Z"/>
    <path class="cls-25" d="M1435.17,2114.11s-12.18,33.72-.16,59.62c12.02,25.91,30.88,24.94,30.88,24.94l.81-12.88s-2.72,7.01,25.54,26.04c28.26,19.02,63.65,18.32,63.65,18.32,0,0-109.52-157-120.72-116.04Z"/>
    <path class="cls-22" d="M1657.69,2231.6l-116.35-7.33s.45,22.3,30.32,38.55c29.87,16.25,97.33,6.13,97.33,6.13l-11.3-37.35Z"/>
    <path class="cls-25" d="M1432.84,1883.33s23.14,9,76.38,42.18c53.23,33.17,97.34,74.39,97.34,74.39,0,0,9.19-14.7-19.73-51.81-28.91-37.11-71.94-38.39-71.94-38.39,0,0-9.56-19.28-31.16-29.98-37.19-18.43-50.88,3.62-50.88,3.62Z"/>
    <path class="cls-19" d="M1941.17,1826.28s109.66,205.69,213.92,208.19l-9.73,48s-137.37-28.75-228.69-224.97l24.5-31.23Z"/>
    <path class="cls-7" d="M1666.56,2193.36s-25.37,35.58-27.64,38.4c-2.27,2.82,33,47.41,33,47.41l43.25-13.58-48.61-72.24Z"/>
    <path class="cls-20" d="M2005.48,1823.14l-143.66,55.59-92.87-190.53s6.87-2.65,18.36-6.22c28.47-9.07,85.65-24.64,140.46-24.01,7.9.23,15.65.58,23.24,1.47l54.46,163.7Z"/>
    <polygon class="cls-20" points="1811.05 1626 1833.85 1682.28 1887.67 1672.02 1860.32 1615.69 1811.05 1626"/>
    <polygon class="cls-14" points="924.05 2460.54 788.23 2495.09 863.53 2554.31 957.73 2541.7 924.05 2460.54"/>
    <path class="cls-21" d="M1966.59,1803.93l-5.04,1.29-91.46,23.34-82.77-146.58c3.56-1.12,7.53-2.34,11.9-3.68,30.88-9.05,80.58-20.94,128.56-20.33l38.81,145.95Z"/>
    <path class="cls-8" d="M1750.13,2501.78c-1.64,23.9-4.93,50.52-10.81,80.06-36.64,185.46-128.11,300.4-128.11,300.4,0,0-338.99-90.3-462.95-191.86,0-.13-.12-.14-.12-.14,0,0,.16-.39.47-1.04l.3-.52c3.53-7.02,18.83-37.04,43.63-77.19,64.65-104.29,193.71-277.35,348.36-294.56l175.94,11.09s41.76,48.23,33.31,173.77Z"/>
    <path class="cls-25" d="M1750.13,2501.78c-1.64,23.9-4.93,50.52-10.81,80.06-36.64,185.46-128.11,300.4-128.11,300.4,0,0-338.99-90.3-462.95-191.86l.34-1.19.3-.52c3.53-7.02,18.83-37.04,43.63-77.19,26.64,34.81,109.29,121.56,257.39,101.79,130.12-17.42,244.38-140.71,300.21-211.49Z"/>
    <path class="cls-1" d="M1552.67,2471.46l5.6,72.16,177.19-4.26-2.71-79.58c-1.87-48.48-53.09-83.91-101.46-80.16h0c-47.07,3.65-82.28,44.77-78.62,91.84Z"/>
    <path class="cls-23" d="M1133.63,2428.43s69.47,91.66,48.99,288.36l-250.93-141.63,58.03-158.26s99.29-5.11,143.91,11.54Z"/>
    <path class="cls-12" d="M1039.67,2418.86c-38.53,1.88-99.63,5.92-134.93,13.64l44.9,123.54s96.68-14.02,131.18-59.75c.35-.46.68-.91,1.01-1.37,23.63-32.56-1.98-78.03-42.16-76.06Z"/>
    <path class="cls-14" d="M1314.37,2176.38c4.25,121.46-103.55,223.83-240.74,228.63-137.19,4.8-232.03-54.27-236.28-175.83-3.53-100.73,84.01-206.38,182.49-244.8,9.99-3.93,20.21-7.15,30.35-9.55,10.34-2.61,20.82-4.31,31.22-5.08,136.89-10.62,228.71,85.07,232.96,206.63Z"/>
    <path class="cls-5" d="M925.18,2045.69l-49.42,28.4s-25.34-17.87-34.29,1.2c-6.8,14.48,11.72,32.1,36.84,29.76,25.12-2.34,46.36-53.13,46.87-59.36Z"/>
    <path class="cls-26" d="M867.96,2153.62s60.36,33.69,97.43,49.19c0,0-26.33,82.75-69.71,74.77-43.38-7.98-27.72-123.96-27.72-123.96Z"/>
    <path class="cls-6" d="M1067.26,2340.24s-30.73,53.18,10.68,95.29c41.41,42.11,76.63,21.34,76.63,21.34,0,0-6.12,28.35,29.78,37.32,35.9,8.97,54.21-21.49,64.05-18.95,9.85,2.54,25.91,28.46,46.86,19.24,20.95-9.22,25.56-36.71,40.52-30.97,14.97,5.73,16.5,42.23,31.65,29.78,15.15-12.46,13.29-43.68,2.48-39.34-10.81,4.33-12.23,20.24-18.74-6.7-6.51-26.94-24.25-40.81-45.48-38.31,0,0-6.48-39.69-62.54-51.84-56.05-12.16-175.91-16.84-175.91-16.84Z"/>
    <path class="cls-25" d="M987.51,2103.62c-13.88,14.89-29.16,23.21-34.13,18.58-4.96-4.63,2.27-20.45,16.15-35.34,13.88-14.89,29.16-23.21,34.13-18.58,4.96,4.63-2.27,20.45-16.15,35.34Z"/>
    <path class="cls-25" d="M1010.8,1952.15l119.09,181.35s-91.42,49.22-99.46,132.79c-8.03,83.57,30.86,151.24,96.36,154.43,47.05,2.29,209.9-45.7,252.4-177.6,42.51-131.89-17.95-262.38-122.71-312.41-104.76-50.03-237.24,12.37-245.69,21.43Z"/>
    <path class="cls-8" d="M1247.8,2277.31c1.59,45.34-33.88,83.37-79.21,84.96-45.34,1.59-83.37-33.88-84.96-79.21-1.59-45.34,33.88-83.37,79.22-84.96,45.34-1.59,83.37,33.88,84.96,79.21Z"/>
    <path class="cls-19" d="M1226.81,2053.4s98.7,148.14,178.12,142.25l-3.81,37.21s-106.54-11.59-190.6-153.9l16.29-25.57Z"/>
    <path class="cls-22" d="M1275.45,2046.21l-105.03,52.97-84.81-137.87s5.03-2.53,13.49-6.1c20.96-9.02,63.25-25.12,104.96-28.73,6.02-.41,11.94-.72,17.78-.62l53.61,120.35Z"/>
    <polygon class="cls-22" points="1112.97 1910.9 1134.5 1951.97 1174.63 1940.16 1149.64 1899.39 1112.97 1910.9"/>
    <path class="cls-21" d="M1244.44,2034.56l-13.86,5.03-57.65,20.91-73.09-104.26-.74-.99c20.95-9.01,63.28-25.12,104.95-28.79l40.4,108.1Z"/>
    <path class="cls-6" d="M1010.8,1952.15s-45.24-13.51-60.88,6.71c-15.64,20.22-6.1,37.22,15.5,39.13,0,0-15.32,15.14-2.45,27.45,12.88,12.31,36.01-1.32,36.01-1.32,0,0-13.38,18.56,12.32,43.89,25.71,25.33,45.21,12.19,45.21,12.19,0,0-22.96,22.29-2.93,46.53,20.03,24.24,48.26,9.5,48.26,9.5,0,0-11.18,11.51-4.55,23.42,6.63,11.91,46.46-27.24,46.46-27.24l-132.95-180.25Z"/>
    <path class="cls-4" d="M1906.21,2942.68l-124.45-95.96-103.08-79.59-67.47,115.11s-507.54-201.51-669.61-302.8c-161.04-100.55-171.25-279.03-171.25-279.03-44.63-17.43-118.17-40.31-188.55-51.32-84.08-12.94-163.86-8.99-185.41,41.29-5.66,13.19-7.35,29.44-4.06,49.5,6.28,38.62,20.52,80.82,44.15,125.23,74.05,140.13,239.21,303.03,532.15,449.44,239.88,120,493.87,180.13,651.69,208.45,96.02,17.18,156.3,22.59,156.3,22.59,36.93-13.5,63.44-34.09,82.46-57.17,52.29-63.63,47.14-145.77,47.14-145.77ZM457.33,2289.4c18.35-5.95,46.23,28.26,111.06,91.36-5.77,10.63-12.56,20.53-20.36,29.43-71.01-69.25-105.2-116.21-90.7-120.79Z"/>
    <path class="cls-24" d="M820.66,1900.79s-11.4-9.1-21.27-12.12c-9.87-3.02-34.47,2.14-34.61,12.67-.14,10.53,9.46,10.18,11.37,10.3,1.91.12,13.24-1.08,13.24-1.08,0,0-9.92,9.19-10.69,25.19-.77,16,11.66,36.92,11.66,36.92l2.71-1.55s-9.96-21.69-9-33.12c.96-11.44,11.79-27.52,15-28.99,3.21-1.47-10.44-1.62-19.29-1.69-8.86-.08-8.78-5.1-7.33-9.08,1.45-3.98,15.02-6.48,23.83-5.68,8.81.79,23.54,14.18,27.37,14.18,3.83,0-2.98-5.94-2.98-5.94Z"/>
    <path class="cls-24" d="M782.07,1874.65s-1.89,14.73-1.11,17.65l-4.29-.27s.59-16.97,5.41-17.38Z"/>
    <path class="cls-24" d="M758.15,1885.59s-1.43,22.67,3.17,33.26c4.6,10.59,20.62,7.29,22.9,5.27l-2.74,5.46s-9.54,6.93-19.46-2.79c-9.93-9.73-5.98-34.38-6.17-38.95-.19-4.56,2.3-2.26,2.3-2.26Z"/>
    <path class="cls-14" d="M1703.87,2729.28h-.13c-2.16,4.42-4.57,8.69-7.1,12.69-6.25,9.8-15.97,19.38-28.09,28.67-63.71,48.96-191.89,88.9-224.01,98.41-.74,1.03-1.33,1.93-2.44,2.53-24.49,14.01-58.7,3.54-58.97,3.53-5.32,1.41-9.98,2.99-11.27,4.39-3.61,4.06-25.41,35.01-36.49,25.73-11.22-9.29,4.26-27.22,16.86-39.84,4.59-4.67,9.76-8.1,14.21-10.5-8.97,1.85-20.27,4.62-22.44,7.04-3.61,4.06-25.41,35.01-36.63,25.72-11.08-9.28,4.4-27.22,16.86-39.84,8.87-8.83,18.93-13.02,24.26-14.7-9.24,1.83-22.17,4.91-24.48,7.44-3.61,4.06-25.41,35.01-36.63,25.72-11.08-9.28,4.4-27.22,16.86-39.84,10.02-10.1,21.81-14.05,26.18-15.25l-.88-.99c-9.1,1.84-23.92,5.06-26.38,7.86-3.61,4.06-25.41,35.01-36.63,25.72-11.08-9.28,4.4-27.22,16.86-39.84,12.6-12.62,28.09-15.8,28.09-15.8l76.74-19.57,189.77-91.44-19.75-133.49,177.15-6s5.17,120.09-31.53,191.68Z"/>
    <path class="cls-21" d="M548.03,2410.19c-10.28,12.09-22.2,22.47-35.48,30.89-47.75-57.46-86.96-109.82-116.17-150.69,21.54-50.28,101.33-54.23,185.41-41.29,5.78,19.01,8.24,39.41,6.91,60.52-1.63,25.78-8.78,50.01-20.31,71.14-64.83-63.1-92.71-97.31-111.06-91.36-14.51,4.58,19.69,51.53,90.7,120.79Z"/>
    <path class="cls-17" d="M1890.23,3034.61c-7.03,17.93-16.93,36.62-31.16,53.83h-.13c-39.45-1.82-106.5-6.18-191.09-17.55,14.86-18.64,28-37.8,39.81-57.04,70.92,15.33,135,20.04,182.57,20.76Z"/>
    <path class="cls-17" d="M1901.39,2995.88c-17.62-1.38-39.49-3.29-66.3-5.65-32.68-2.86-68.96-8.1-105.71-14.58,24.67-46.73,41.34-91.95,52.39-128.94l124.45,95.96s1.4,22.49-4.83,53.21Z"/>
    <path class="cls-10" d="M2026.18,2773.6l-5.77,8.49-114.06,166.9-144-115.57-56.81-45.56s67.72-68.02,143.9-76.5c76.17-8.34,176.73,62.24,176.73,62.24Z"/>
    <path class="cls-18" d="M1858.94,3088.43c-.58.77-1.31,1.66-2.03,2.42-1.45,1.79-3.04,3.56-4.63,5.34-6.04,6.46-12.74,12.74-20.08,18.58-2.12,1.74-4.24,3.35-6.48,4.96-6.46,4.69-13.45,9.21-21.09,13.29-2.22,1.2-4.44,2.4-6.79,3.46-1.11.6-2.22,1.2-3.32,1.53-2.5,1.32-4.98,2.37-7.6,3.54-3.31,1.4-6.75,2.79-10.31,4.04,0,0-60.28-5.41-156.3-22.59,17.41-16.61,33.13-34.12,47.54-52.13,84.58,11.37,151.64,15.73,191.09,17.54Z"/>
    <path class="cls-15" d="M512.56,2441.08c-22.49,14.28-48.52,22.96-76.09,24.04-23.62-44.41-37.86-86.61-44.15-125.23-1.56-9.22-1.97-17.69-1.49-25.31.14-2.27.41-4.4.68-6.53.27-2.13.67-4.25,1.2-6.23.23-1.59.73-3.04,1.23-4.62.69-2.37,1.5-4.6,2.44-6.82,29.21,40.87,68.43,93.23,116.17,150.69Z"/>
    <path class="cls-28" d="M1667.85,3070.89c-14.41,18-30.13,35.52-47.54,52.13-157.82-28.32-411.8-88.45-651.69-208.45-292.94-146.41-458.1-309.31-532.15-449.44,27.56-1.08,53.59-9.76,76.09-24.04,129.25,155.95,320.25,349.44,539.37,454.05,220.56,105.24,451.29,153.44,615.92,175.76Z"/>
    <path class="cls-28" d="M1859.07,3088.44c-.72.76-1.31,1.66-2.16,2.41.72-.76,1.44-1.65,2.03-2.42h.13Z"/>
    <path class="cls-10" d="M1366.91,3304.6s-191.18-3.33-300.56-151.05c-109.25-147.71-123.63-372.86-123.63-372.86l1.57.63,300.19,133.59,113.82,362.45,8.61,27.23Z"/>
    <path class="cls-20" d="M1366.91,3304.6s-191.18-3.33-300.56-151.05c-109.25-147.71-123.63-372.86-123.63-372.86l1.57.63c13.78,53.71,57.32,165.23,192.83,311.24,94.7,102,169.48,156.07,221.18,184.81l8.61,27.23Z"/>
    <path class="cls-20" d="M2020.41,2782.09l-114.06,166.9-144-115.57c42.59,5.23,103.66,6.53,167.86-11.95,43.99-12.78,72.23-26.7,90.19-39.38Z"/>
    <path class="cls-9" d="M568.39,2380.76c-5.77,10.63-12.56,20.53-20.36,29.43-71.01-69.25-105.2-116.21-90.7-120.79,18.35-5.95,46.23,28.26,111.06,91.36Z"/>
    <path class="cls-16" d="M1073.63,2740.12c-3.34-.21-135.8-9.5-329.46-160.65-80.28-62.6-147.13-121.26-196.14-169.28,7.8-8.9,14.6-18.8,20.36-29.43,39.93,38.86,93.93,88.54,168.47,146.48,191.51,149.14,331.16,210.38,336.76,212.88Z"/>
    <path class="cls-27" d="M1901.39,2995.88c-2.36,11.92-5.87,25.11-11.16,38.73-47.57-.72-111.65-5.43-182.57-20.76,7.91-12.78,15.15-25.47,21.72-38.2,36.74,6.47,73.03,11.71,105.71,14.58,26.81,2.36,48.68,4.28,66.3,5.65Z"/>
    <path class="cls-16" d="M1729.38,2975.65c-6.57,12.73-13.81,25.42-21.72,38.2-78.46-17.02-165.49-47.04-247.64-99.16,8.17,2.26,141.74,38.71,269.36,60.97Z"/>
    <path class="cls-16" d="M1976.4,2999.41l.02-.27s.26.15-.02.27Z"/>
    <polygon class="cls-11" points="1562.97 2575.36 1735.58 2544.8 1735.4 2537.55 1558.27 2543.62 1562.97 2575.36"/>
    <path class="cls-11" d="M1578.03,2677.07l72.29,32.34s.28-11.96-22.59-29.21c-22.86-17.25-49.71-3.13-49.71-3.13Z"/>
    <path class="cls-9" d="M1244.44,2034.56l-13.86,5.03c-5.11-18.96-19.23-58.75-50.11-75.31-30.74-16.56-64.99-11.61-80.63-8.03l-.74-.99c20.95-9.01,63.28-25.12,104.95-28.79l40.4,108.1Z"/>
    <path class="cls-9" d="M1966.59,1803.93l-5.04,1.29c-9.13-16.8-23.88-38.12-47.72-64.3-40.51-44.53-84.69-58.58-114.62-62.61,30.88-9.05,80.58-20.94,128.56-20.33l38.81,145.95Z"/>
    <path class="cls-16" d="M770.34,2300.41l66.9-.05s4.96,49.1,76.83,260.08c0,0-135.72-76.5-143.73-260.03Z"/>
  </g>
  <g>
    <g>
      <path class="cls-21" d="M2729.97,2331.24s-4.39-118.63,72.5-101.06c76.89,17.58,0,221.89,0,221.89,0,0-153.78-24.16-171.36-96.66-17.57-72.5,57.12-63.71,98.86-24.17Z"/>
      <path class="cls-21" d="M4350.43,1775.96s41.16-52.35,67.68-16.94c26.52,35.41-80.49,94.93-80.49,94.93,0,0-57.03-66.13-38.25-103.52,18.78-37.39,47.55-6.54,51.06,25.53Z"/>
      <path class="cls-21" d="M3201.34,1892.64s-80.74-4.94-97.21-47.78c-16.48-42.84,60.96-13.18,60.96-13.18,0,0-3.29-77.44,32.95-65.91,36.25,11.53,3.3,126.87,3.3,126.87Z"/>
      <path class="cls-21" d="M4713.61,2366.55s-53.45-133.32,2.77-192.34c56.22-59.01,67.5,87.81,67.5,87.81,0,0,114.18-38.54,123.23,28.4,9.05,66.94-193.5,76.12-193.5,76.12Z"/>
      <g>
        <path class="cls-8" d="M3398.27,1969.04c5.7,5.79,9.9,13.13,12.59,22.03,2.68,8.9,3.78,17.71,3.27,26.43-.84,18.29-5.79,36.59-14.85,54.88-9.06,18.29-18.88,33.73-29.45,46.32-5.37-2.01-12.04-5.66-20.01-10.95-7.97-5.29-13.97-10.2-18-14.73.5-.67,1.13-1.35,1.89-2.01.75-.67,1.47-1.43,2.14-2.27,14.1-14.6,24.67-27.19,31.72-37.76-9.9-2.18-18.21-6.33-24.92-12.46-6.71-6.12-10.07-13.8-10.07-23.03,0-8.22,2.27-16.65,6.8-25.3,4.53-8.64,10.28-15.77,17.24-21.4,6.96-5.62,13.89-8.43,20.77-8.43,8.22,0,15.19,2.9,20.89,8.69ZM3383.92,2010.95c3.69,0,6.38-.08,8.06-.25-2.86-3.52-6.42-6.42-10.7-8.69-4.28-2.27-8.43-3.4-12.46-3.4-3.02,0-5.5.63-7.43,1.89-1.93,1.26-2.89,3.06-2.89,5.41,1.01,1.85,5.29,3.27,12.84,4.28,4.03.5,8.22.76,12.59.76Z"/>
        <path class="cls-8" d="M3490.66,1969.04c5.7,5.79,9.9,13.13,12.59,22.03,2.68,8.9,3.78,17.71,3.27,26.43-.84,18.29-5.79,36.59-14.85,54.88-9.06,18.29-18.88,33.73-29.45,46.32-5.37-2.01-12.04-5.66-20.01-10.95-7.97-5.29-13.97-10.2-18-14.73.5-.67,1.13-1.35,1.89-2.01.75-.67,1.47-1.43,2.14-2.27,14.1-14.6,24.67-27.19,31.72-37.76-9.9-2.18-18.21-6.33-24.92-12.46-6.71-6.12-10.07-13.8-10.07-23.03,0-8.22,2.27-16.65,6.8-25.3,4.53-8.64,10.28-15.77,17.24-21.4,6.96-5.62,13.89-8.43,20.77-8.43,8.22,0,15.19,2.9,20.89,8.69ZM3476.31,2010.95c3.69,0,6.38-.08,8.06-.25-2.86-3.52-6.42-6.42-10.7-8.69-4.28-2.27-8.43-3.4-12.46-3.4-3.02,0-5.5.63-7.43,1.89-1.93,1.26-2.89,3.06-2.89,5.41,1.01,1.85,5.29,3.27,12.84,4.28,4.03.5,8.22.76,12.59.76Z"/>
        <path class="cls-8" d="M3583.05,1969.04c5.7,5.79,9.9,13.13,12.59,22.03,2.68,8.9,3.78,17.71,3.27,26.43-.84,18.29-5.79,36.59-14.85,54.88-9.06,18.29-18.88,33.73-29.45,46.32-5.37-2.01-12.04-5.66-20.01-10.95-7.97-5.29-13.97-10.2-18-14.73.5-.67,1.13-1.35,1.89-2.01.75-.67,1.47-1.43,2.14-2.27,14.1-14.6,24.67-27.19,31.72-37.76-9.9-2.18-18.21-6.33-24.92-12.46-6.71-6.12-10.07-13.8-10.07-23.03,0-8.22,2.27-16.65,6.8-25.3,4.53-8.64,10.28-15.77,17.24-21.4,6.96-5.62,13.89-8.43,20.77-8.43,8.22,0,15.19,2.9,20.89,8.69ZM3568.7,2010.95c3.69,0,6.38-.08,8.06-.25-2.86-3.52-6.42-6.42-10.7-8.69-4.28-2.27-8.43-3.4-12.46-3.4-3.02,0-5.5.63-7.43,1.89-1.93,1.26-2.89,3.06-2.89,5.41,1.01,1.85,5.29,3.27,12.84,4.28,4.03.5,8.22.76,12.59.76Z"/>
        <path class="cls-8" d="M3675.44,1969.04c5.7,5.79,9.9,13.13,12.59,22.03,2.68,8.9,3.78,17.71,3.27,26.43-.84,18.29-5.79,36.59-14.85,54.88-9.06,18.29-18.88,33.73-29.45,46.32-5.37-2.01-12.04-5.66-20.01-10.95-7.97-5.29-13.97-10.2-18-14.73.5-.67,1.13-1.35,1.89-2.01.75-.67,1.47-1.43,2.14-2.27,14.1-14.6,24.67-27.19,31.72-37.76-9.9-2.18-18.21-6.33-24.92-12.46-6.71-6.12-10.07-13.8-10.07-23.03,0-8.22,2.27-16.65,6.8-25.3,4.53-8.64,10.28-15.77,17.24-21.4,6.96-5.62,13.89-8.43,20.77-8.43,8.22,0,15.19,2.9,20.89,8.69ZM3661.09,2010.95c3.69,0,6.38-.08,8.06-.25-2.86-3.52-6.42-6.42-10.7-8.69-4.28-2.27-8.43-3.4-12.46-3.4-3.02,0-5.5.63-7.43,1.89-1.93,1.26-2.89,3.06-2.89,5.41,1.01,1.85,5.29,3.27,12.84,4.28,4.03.5,8.22.76,12.59.76Z"/>
        <path class="cls-8" d="M3767.83,1969.04c5.7,5.79,9.9,13.13,12.59,22.03,2.68,8.9,3.78,17.71,3.27,26.43-.84,18.29-5.79,36.59-14.85,54.88-9.06,18.29-18.88,33.73-29.45,46.32-5.37-2.01-12.04-5.66-20.01-10.95-7.97-5.29-13.97-10.2-18-14.73.5-.67,1.13-1.35,1.89-2.01.75-.67,1.47-1.43,2.14-2.27,14.1-14.6,24.67-27.19,31.72-37.76-9.9-2.18-18.21-6.33-24.92-12.46-6.71-6.12-10.07-13.8-10.07-23.03,0-8.22,2.27-16.65,6.8-25.3,4.53-8.64,10.28-15.77,17.24-21.4,6.96-5.62,13.89-8.43,20.77-8.43,8.22,0,15.19,2.9,20.89,8.69ZM3753.48,2010.95c3.69,0,6.38-.08,8.06-.25-2.86-3.52-6.42-6.42-10.7-8.69-4.28-2.27-8.43-3.4-12.46-3.4-3.02,0-5.5.63-7.43,1.89-1.93,1.26-2.89,3.06-2.89,5.41,1.01,1.85,5.29,3.27,12.84,4.28,4.03.5,8.22.76,12.59.76Z"/>
        <path class="cls-8" d="M3860.22,1969.04c5.7,5.79,9.9,13.13,12.59,22.03,2.68,8.9,3.78,17.71,3.27,26.43-.84,18.29-5.79,36.59-14.85,54.88-9.06,18.29-18.88,33.73-29.45,46.32-5.37-2.01-12.04-5.66-20.01-10.95-7.97-5.29-13.97-10.2-18-14.73.5-.67,1.13-1.35,1.89-2.01.75-.67,1.47-1.43,2.14-2.27,14.1-14.6,24.67-27.19,31.72-37.76-9.9-2.18-18.21-6.33-24.92-12.46-6.71-6.12-10.07-13.8-10.07-23.03,0-8.22,2.27-16.65,6.8-25.3,4.53-8.64,10.28-15.77,17.24-21.4,6.96-5.62,13.89-8.43,20.77-8.43,8.22,0,15.19,2.9,20.89,8.69ZM3845.87,2010.95c3.69,0,6.38-.08,8.06-.25-2.86-3.52-6.42-6.42-10.7-8.69-4.28-2.27-8.43-3.4-12.46-3.4-3.02,0-5.5.63-7.43,1.89-1.93,1.26-2.89,3.06-2.89,5.41,1.01,1.85,5.29,3.27,12.84,4.28,4.03.5,8.22.76,12.59.76Z"/>
        <path class="cls-8" d="M3985.71,2015.23c.92,3.86,1.38,9.74,1.38,17.62s-.5,13.97-1.51,17.75c-1.01,3.78-2.77,5.66-5.29,5.66-6.21,0-12.76-.5-19.64-1.51-4.2,12.25-9.65,23.95-16.36,35.12-6.71,11.16-13.43,20.77-20.14,28.82-5.37-2.01-12.04-5.66-20.01-10.95-7.97-5.29-13.97-10.2-18-14.73.5-.67,1.13-1.35,1.89-2.01.75-.67,1.47-1.43,2.14-2.27,14.1-14.6,24.67-27.19,31.72-37.76-9.9-2.18-18.21-6.33-24.92-12.46-6.71-6.12-10.07-13.8-10.07-23.03,0-8.22,2.27-16.65,6.8-25.3,4.53-8.64,10.28-15.77,17.24-21.4,6.96-5.62,13.89-8.43,20.77-8.43,7.38,0,13.76,2.35,19.13,7.05,5.37,4.7,9.52,10.74,12.46,18.13,2.93,7.39,4.66,15.19,5.16,23.41,5.37.34,9.31.5,11.83.5,2.68,0,4.49,1.93,5.41,5.79ZM3925.67,2010.2c4.03.5,8.22.76,12.59.76,3.69,0,6.38-.08,8.06-.25-2.86-3.52-6.42-6.42-10.7-8.69-4.28-2.27-8.43-3.4-12.46-3.4-3.02,0-5.5.63-7.43,1.89-1.93,1.26-2.89,3.06-2.89,5.41,1.01,1.85,5.29,3.27,12.84,4.28Z"/>
        <path class="cls-8" d="M4117.5,2002.14c0,13.59-6.46,29.04-19.38,46.32-10.41,5.54-21.57,8.31-33.48,8.31-11.25,0-24.25-2.6-39.02-7.8-13.26,4.87-28.36,7.3-45.31,7.3-2.52,0-4.28-1.89-5.29-5.66-1.01-3.78-1.51-9.69-1.51-17.75s.46-13.76,1.38-17.62c.92-3.86,2.73-5.79,5.41-5.79l18.38-.25c1.84-7.05,5.87-14.77,12.08-23.16-1.35-5.7-2.01-11.33-2.01-16.87,0-6.71.92-14.43,2.77-23.16l2.27-1.76c6.38.17,16.87,1.93,31.47,5.29,14.6,3.36,27.52,7.39,38.77,12.08,22.32,9.06,33.48,22.57,33.48,40.53ZM4045.75,2005.66c2.52-1.34,3.78-3.19,3.78-5.54,0-2.68-1.55-5.12-4.66-7.3-3.11-2.18-6.34-3.27-9.69-3.27-1.35,0-2.69.25-4.03.76-1.68.67-2.98,1.72-3.9,3.15-.92,1.43-1.38,2.98-1.38,4.66,0,2.18.67,4.11,2.01,5.79,1.34,1.68,3.36,2.86,6.04,3.52.67.17,1.76.25,3.27.25,3.19,0,6.04-.67,8.56-2.01ZM4097.36,2009.19c-1.85-2.01-5-3.98-9.44-5.92-4.45-1.93-9.61-3.48-15.48-4.66-.84,4.87-2.35,9.65-4.53,14.35,4.7,1.35,9.23,2.01,13.59,2.01,6.71,0,12-1.93,15.86-5.79Z"/>
        <path class="cls-8" d="M4253.44,2006.42c-1.34-5.7-2.98-11.33-4.91-16.87-1.93-5.54-3.06-8.89-3.4-10.07l40.28-9.31c3.19,10.07,4.78,20.98,4.78,32.73,0,8.9-.92,17.46-2.77,25.68-1.85,8.22-4.45,15.02-7.8,20.39-27.69,5.54-51.44,7.47-71.24,5.79-4.2,12.25-9.65,23.95-16.36,35.12-6.71,11.16-13.43,20.77-20.14,28.82-5.37-2.01-12.04-5.66-20.01-10.95-7.97-5.29-13.97-10.2-18-14.73.5-.67,1.13-1.35,1.89-2.01.75-.67,1.47-1.43,2.14-2.27,14.1-14.6,24.67-27.19,31.72-37.76-9.91-2.18-18.21-6.33-24.92-12.46-6.71-6.12-10.07-13.8-10.07-23.03,0-8.22,2.27-16.65,6.8-25.3,4.53-8.64,10.28-15.77,17.24-21.4,6.96-5.62,13.88-8.43,20.77-8.43,7.38,0,13.76,2.35,19.13,7.05,5.37,4.7,9.52,10.74,12.46,18.13,2.93,7.39,4.66,15.27,5.16,23.66,12.59.67,25.01-.25,37.26-2.77ZM4173.38,2010.2c4.03.5,8.22.76,12.59.76,3.69,0,6.38-.08,8.06-.25-2.86-3.52-6.42-6.42-10.7-8.69-4.28-2.27-8.43-3.4-12.46-3.4-3.02,0-5.5.63-7.43,1.89-1.93,1.26-2.9,3.06-2.9,5.41,1.01,1.85,5.29,3.27,12.84,4.28ZM4276.6,2102.08c-4.03,5.7-7.47,9.48-10.32,11.33-2.86-1.18-6.71-3.4-11.58-6.67-4.87-3.27-8.65-6.25-11.33-8.94-1.68,3.02-3.86,6.08-6.54,9.19-2.69,3.1-4.87,5.24-6.55,6.42-3.19-1.35-7.43-3.86-12.71-7.55-5.29-3.69-9.02-6.8-11.2-9.31,1.01-3.52,3.52-8.18,7.55-13.97,4.03-5.79,7.38-8.69,10.07-8.69,2.52,0,6.46,1.84,11.83,5.54,5.37,3.69,8.72,6.8,10.07,9.31,2.18-3.86,4.57-7.3,7.17-10.32,2.6-3.02,4.91-4.53,6.92-4.53,2.68,0,6.92,2.05,12.71,6.17,5.79,4.11,8.94,7.34,9.44,9.69.33,2.52-1.51,6.63-5.54,12.34Z"/>
        <path class="cls-4" d="M3264.66,2429.34c0,13.35-1.39,26.19-4.15,38.52-2.77,12.34-6.67,22.53-11.71,30.59-18.12,8.06-34.62,12.08-49.47,12.08-11.33,0-21.59-2.32-30.78-6.99-9.19-4.66-16.93-11.52-23.22-20.58h-3.02c-5.29,8.31-12.4,14.98-21.33,20.01-8.94,5.04-18.57,7.55-28.89,7.55h-.38c-1.01,15.86-3.53,30.33-7.55,43.43-4.03,13.09-9.32,24.17-15.86,33.23-35.75,10.57-67.09,15.86-94.03,15.86-35.25,0-61.55-7.49-78.92-22.47-17.37-14.98-26.06-36.19-26.06-63.63s8.05-61.04,24.17-99.31l52.11,16.99c-9.06,24.92-13.59,44.81-13.59,59.66,0,13.35,3.59,23.22,10.76,29.64,7.17,6.42,18.18,9.63,33.04,9.63,13.34,0,32.35-3.02,57.02-9.06-1.51-16.62-4.47-33.98-8.87-52.11-4.41-18.13-8.75-32.98-13.03-44.56l54.75-23.03,3.02,1.51c1.51,11.58,4.97,20.46,10.38,26.62,5.41,6.17,11.64,9.25,18.69,9.25,8.05,0,15.67-3.83,22.85-11.52,7.17-7.68,12.14-18.18,14.92-31.53l31.34,4.91c-.25,2.02-.38,4.91-.38,8.69,0,19.89,8.18,29.83,24.54,29.83,4.53,0,11.07-1,19.64-3.02-2.27-9.56-4.97-19-8.12-28.32-3.15-9.31-5.1-14.97-5.85-16.99l60.8-13.97c4.78,15.1,7.17,31.47,7.17,49.09Z"/>
        <path class="cls-4" d="M3376.24,2447.85c1.38,5.79,2.08,14.6,2.08,26.43s-.76,20.96-2.27,26.62c-1.51,5.66-4.15,8.5-7.93,8.5-13.85,0-27.25-.88-40.22-2.64-12.97-1.76-23.85-4.53-32.66-8.31-2.27-9.06-4.15-49.97-5.66-122.72l-2.27-76.65,60.8-3.4c2.27,37.51,3.4,72,3.4,103.47,0,9.57-.25,22.41-.75,38.52,6.29,1.01,12.08,1.51,17.37,1.51,4.02,0,6.73,2.9,8.12,8.69Z"/>
        <path class="cls-4" d="M3495.57,2447.85c1.38,5.79,2.08,14.6,2.08,26.43s-.75,20.96-2.27,26.62c-1.51,5.66-4.15,8.5-7.93,8.5-10.07,0-20.08-2.14-30.02-6.42-9.95-4.28-17.69-10.95-23.22-20.01h-3.02c-5.54,9.82-13.47,16.68-23.79,20.58-10.33,3.91-23.41,5.85-39.27,5.85-3.78,0-6.42-2.83-7.93-8.5-1.51-5.66-2.27-14.54-2.27-26.62s.7-20.64,2.08-26.43c1.39-5.79,4.1-8.69,8.12-8.69,15.35,0,27.62-2.64,36.82-7.93,9.19-5.29,15.42-15.98,18.69-32.1l32.1,4.91c-.25,2.02-.38,4.91-.38,8.69,0,10.57,2.32,17.62,6.99,21.15,4.66,3.53,13.03,5.29,25.11,5.29,4.02,0,6.73,2.9,8.12,8.69ZM3402.86,2587.75c-8.56-5.92-14.48-11.02-17.75-15.29.76-3.28,2.7-7.74,5.85-13.41,3.14-5.66,6.73-10.83,10.76-15.48,4.02-4.66,7.55-7.24,10.57-7.74,2.77-.51,6.99.76,12.65,3.78,5.66,3.02,10.95,6.73,15.86,11.14,4.91,4.4,7.61,7.87,8.12,10.38,1,3.78-1.83,10.38-8.5,19.83-6.67,9.44-12.27,15.67-16.8,18.69-5.29-2.02-12.21-5.98-20.77-11.89Z"/>
        <path class="cls-4" d="M3643.21,2447.85c1.38,5.79,2.08,14.6,2.08,26.43s-.75,20.96-2.27,26.62c-1.51,5.66-4.15,8.5-7.93,8.5-25.68,0-45.19-8.81-58.53-26.43h-3.4c-5.29,7.55-12.71,13.22-22.28,16.99-9.32,3.78-18.5,6.3-27.57,7.55-9.06,1.26-21.02,1.89-35.87,1.89-3.78,0-6.42-2.83-7.93-8.5-1.51-5.66-2.27-14.54-2.27-26.62s.7-20.64,2.08-26.43c1.39-5.79,4.1-8.69,8.12-8.69,13.84,0,25.42-.88,34.74-2.64,9.31-1.76,17.75-5.53,25.3-11.33,7.55-5.79,13.72-14.47,18.5-26.06l31.72,4.91c-.25,2.02-.38,4.78-.38,8.31,0,10.57,2.77,17.69,8.31,21.34,5.53,3.65,15.35,5.48,29.45,5.48,4.02,0,6.73,2.9,8.12,8.69ZM3592.8,2578.12c-6.04,8.55-11.2,14.35-15.48,17.37-4.79-2.02-10.83-5.48-18.13-10.38-7.3-4.91-12.71-9.38-16.24-13.41-2.52,4.53-5.79,9.19-9.82,13.97-4.03,4.78-7.3,8.05-9.82,9.82-5.04-2.27-11.46-6.11-19.26-11.52-7.81-5.42-13.35-10.01-16.62-13.78,1.51-5.29,5.29-12.34,11.33-21.15,6.04-8.82,11.08-13.22,15.1-13.22s10.07,2.83,18.13,8.5c8.05,5.67,12.96,10.38,14.73,14.16,3.52-6.3,7.17-11.65,10.95-16.05,3.78-4.41,7.17-6.61,10.2-6.61,4.02,0,10.38,3.08,19.07,9.25,8.68,6.17,13.41,11.01,14.16,14.54.5,3.78-2.27,9.94-8.31,18.5Z"/>
        <path class="cls-4" d="M3916.42,2430.1c0,13.35-1.32,26.06-3.96,38.14-2.64,12.08-6.48,22.16-11.52,30.21-17.12,8.06-33.74,12.08-49.84,12.08-11.84,0-22.34-2.32-31.53-6.99-9.19-4.66-16.56-11.52-22.09-20.58h-3.4c-5.54,9.06-12.65,16.05-21.33,20.96-8.69,4.91-18.31,7.36-28.89,7.36-9.82,0-19.07-2.2-27.75-6.61-8.69-4.4-15.55-10.38-20.58-17.94h-3.4c-8.31,9.32-16.8,15.42-25.49,18.31-8.68,2.9-19.2,4.34-31.53,4.34-3.78,0-6.42-2.83-7.93-8.5-1.51-5.66-2.27-14.54-2.27-26.62s.7-20.64,2.08-26.43c1.39-5.79,4.1-8.69,8.12-8.69,10.32,0,18.94-.69,25.87-2.08,6.92-1.38,13.28-5.03,19.07-10.95,5.79-5.91,9.44-15.16,10.95-27.75h31.34c1.26,28.7,10.32,43.05,27.19,43.05,8.56,0,16.17-3.4,22.85-10.2,6.67-6.8,11.64-17.49,14.92-32.1l31.72,4.91c-.51,4.53-.75,7.81-.75,9.82,0,19.39,8.18,29.08,24.54,29.08,5.29,0,11.95-1.13,20.01-3.4-2.27-9.56-4.97-19-8.12-28.32-3.15-9.31-5.1-14.97-5.85-16.99l60.42-13.97c4.78,14.35,7.17,30.96,7.17,49.84Z"/>
        <path class="cls-4" d="M4101.82,2468.36c.92,3.86,1.38,9.74,1.38,17.62s-.5,13.97-1.51,17.75-2.77,5.66-5.29,5.66c-11.08,0-20.48-3.44-28.19-10.32l-2.77,2.01c-4.53,3.19-10.32,5.46-17.37,6.8-7.05,1.35-16.03,2.01-26.94,2.01-6.38,0-13.51-.25-21.4-.76.33,11.92,1.3,23.83,2.89,35.75,1.59,11.92,3.48,22.07,5.66,30.46-3.69,2.01-9.44,3.65-17.24,4.91-7.8,1.26-15.32,1.89-22.53,1.89l-1.26-1.01c-4.37-20.48-6.55-41.79-6.55-63.94,0-8.89.33-16.61,1.01-23.16,1.17-5.7,4.19-11.91,9.06-18.63,4.87-6.71,9.73-10.83,14.6-12.34l10.07.5c-.17-1.01-.25-2.52-.25-4.53,0-6.88,1.72-13.8,5.16-20.77,3.44-6.96,8.6-12.8,15.48-17.5,6.88-4.7,15.19-7.05,24.92-7.05,8.89,0,16.28,2.43,22.15,7.3,5.87,4.87,10.15,11.67,12.84,20.39v.25l.5,1.51c2.18,7.05,4.74,12.04,7.68,14.98,2.93,2.94,7.09,4.41,12.46,4.41,2.68,0,4.49,1.93,5.41,5.79ZM4035.24,2466.1c5.7,0,10.86-.42,15.48-1.26,4.61-.84,7.34-1.84,8.18-3.02-.5-2.18-2.31-4.15-5.41-5.92-3.11-1.76-7.09-2.64-11.96-2.64s-9.28.84-13.72,2.52c-4.45,1.68-7.43,4.7-8.94,9.06,5.04.84,10.49,1.26,16.36,1.26Z"/>
        <path class="cls-4" d="M4172.94,2456.03c0,8.9-.92,17.46-2.77,25.68-1.85,8.22-4.45,15.02-7.8,20.39-7.05,2.01-16.36,3.74-27.94,5.16-11.58,1.43-24.25,2.14-38.01,2.14-2.52,0-4.28-1.89-5.29-5.66-1.01-3.78-1.51-9.69-1.51-17.75s.46-13.76,1.38-17.62c.92-3.86,2.73-5.79,5.41-5.79,17.96,0,31.22-1.01,39.78-3.02-1.35-5.7-2.98-11.33-4.91-16.87-1.93-5.54-3.06-8.89-3.4-10.07l40.28-9.31c3.19,10.07,4.78,20.98,4.78,32.73ZM4161.86,2555.21c-4.03,5.7-7.47,9.57-10.32,11.58-3.19-1.35-7.22-3.65-12.08-6.92-4.87-3.27-8.48-6.25-10.83-8.94-1.68,3.02-3.86,6.12-6.54,9.31-2.69,3.19-4.87,5.37-6.54,6.55-3.36-1.51-7.64-4.07-12.84-7.68-5.2-3.61-8.89-6.67-11.08-9.19,1.01-3.52,3.52-8.22,7.55-14.1,4.03-5.88,7.38-8.81,10.07-8.81s6.71,1.89,12.08,5.66c5.37,3.78,8.64,6.92,9.82,9.44,2.35-4.2,4.78-7.76,7.3-10.7,2.52-2.94,4.78-4.41,6.8-4.41,2.68,0,6.92,2.05,12.71,6.17,5.79,4.11,8.94,7.34,9.44,9.69.33,2.52-1.51,6.63-5.54,12.33Z"/>
        <path class="cls-4" d="M4309.26,2468.36c.92,3.86,1.38,9.74,1.38,17.62s-.5,13.97-1.51,17.75-2.77,5.66-5.29,5.66c-6.55,0-13.22-1.64-20.01-4.91s-13.13-8.18-19.01-14.73c-2.01,3.19-5.12,7.8-9.31,13.85-4.37,2.01-10.11,3.69-17.24,5.04-7.13,1.34-14.81,2.01-23.03,2.01-10.24,0-19.3-1.09-27.19-3.27.67-15.44,3.44-30.37,8.31-44.81,8.72.84,16.19,1.26,22.41,1.26,9.9,0,19.13-.92,27.69-2.77-9.06-16.11-19.13-31.3-30.21-45.56l34.74-29.45c6.04,8.56,10.95,16.7,14.73,24.42,3.78,7.72,8.18,17.62,13.22,29.71,2.68,6.21,5.04,10.83,7.05,13.85,2.01,3.02,4.36,5.2,7.05,6.54,2.68,1.35,6.29,2.01,10.83,2.01,2.68,0,4.49,1.93,5.41,5.79Z"/>
        <path class="cls-4" d="M4301.33,2462.57h12.34c5.54.17,10.2-1.51,13.97-5.04,3.78-3.52,8.18-8.22,13.22-14.1,6.04-7.21,11.45-12.63,16.24-16.24,4.78-3.61,10.7-5.41,17.75-5.41s13.93,2.14,19.64,6.42c5.7,4.28,10.11,10.24,13.22,17.87,3.1,7.64,4.66,16.32,4.66,26.06,0,13.26-2.86,24.29-8.56,33.1-5.71,8.81-13.68,13.22-23.92,13.22-6.71,0-13.72-1.85-21.02-5.54-7.3-3.69-14.22-8.56-20.77-14.6-5.71,5.37-11.83,8.6-18.38,9.69-6.54,1.09-12.67,1.55-18.38,1.38-4.7-18.96-4.7-34.57,0-46.82ZM4386.42,2474.28c2.68-.59,4.36-1.3,5.03-2.14-.17-2.35-1.8-4.36-4.91-6.04-3.11-1.68-7.34-2.52-12.71-2.52-7.55,0-14.27,1.76-20.14,5.29,3.02,2.18,6.71,3.78,11.08,4.78,4.36,1.01,8.72,1.51,13.09,1.51,3.02,0,5.87-.29,8.56-.88Z"/>
        <path class="cls-4" d="M4486.86,2422.17c5.7,5.79,9.9,13.13,12.59,22.03,2.68,8.9,3.78,17.71,3.27,26.43-.84,18.29-5.79,36.59-14.85,54.88-9.06,18.29-18.88,33.73-29.45,46.32-5.37-2.01-12.04-5.66-20.01-10.95-7.97-5.29-13.97-10.2-18-14.73.5-.67,1.13-1.34,1.89-2.01.75-.67,1.47-1.43,2.14-2.27,14.1-14.6,24.67-27.19,31.72-37.76-9.9-2.18-18.21-6.33-24.92-12.46-6.71-6.12-10.07-13.8-10.07-23.03,0-8.22,2.27-16.65,6.8-25.3,4.53-8.64,10.28-15.77,17.24-21.4,6.96-5.62,13.89-8.43,20.77-8.43,8.22,0,15.19,2.9,20.89,8.69ZM4472.51,2464.08c3.69,0,6.38-.08,8.06-.25-2.86-3.52-6.42-6.42-10.7-8.69-4.28-2.27-8.43-3.4-12.46-3.4-3.02,0-5.5.63-7.43,1.89-1.93,1.26-2.89,3.06-2.89,5.41,1.01,1.85,5.29,3.27,12.84,4.28,4.03.5,8.22.76,12.59.76Z"/>
        <path class="cls-4" d="M4517.07,2508.89c.84-13.42,1.26-27.35,1.26-41.79,0-27.02-1.01-59.66-3.02-97.93l40.78-2.27c2.18,32.22,3.27,62.77,3.27,91.63,0,18.29-.34,33.15-1.01,44.56-3.52,2.01-9.15,3.65-16.87,4.91-7.72,1.26-15.36,1.97-22.91,2.14l-1.51-1.26Z"/>
        <path class="cls-4" d="M4661.7,2468.36c.92,3.86,1.38,9.74,1.38,17.62s-.5,13.97-1.51,17.75c-1.01,3.78-2.77,5.66-5.29,5.66-9.23,0-18.17-.59-26.81-1.76-8.65-1.17-15.9-3.02-21.78-5.54-1.51-6.04-2.77-33.31-3.78-81.82l-1.51-51.1,40.53-2.27c1.51,25.01,2.27,48,2.27,68.98,0,6.38-.17,14.94-.5,25.68,4.19.67,8.06,1.01,11.58,1.01,2.68,0,4.49,1.93,5.41,5.79Z"/>
        <path class="cls-4" d="M4653.77,2462.57h12.34c5.54.17,10.2-1.51,13.97-5.04,3.78-3.52,8.18-8.22,13.22-14.1,6.04-7.21,11.45-12.63,16.24-16.24,4.78-3.61,10.7-5.41,17.75-5.41s13.93,2.14,19.64,6.42c5.7,4.28,10.11,10.24,13.22,17.87,3.1,7.64,4.66,16.32,4.66,26.06,0,13.26-2.86,24.29-8.56,33.1-5.71,8.81-13.68,13.22-23.92,13.22-6.71,0-13.72-1.85-21.02-5.54-7.3-3.69-14.22-8.56-20.77-14.6-5.71,5.37-11.83,8.6-18.38,9.69-6.54,1.09-12.67,1.55-18.38,1.38-4.7-18.96-4.7-34.57,0-46.82ZM4738.86,2474.28c2.68-.59,4.36-1.3,5.03-2.14-.17-2.35-1.8-4.36-4.91-6.04-3.11-1.68-7.34-2.52-12.71-2.52-7.55,0-14.27,1.76-20.14,5.29,3.02,2.18,6.71,3.78,11.08,4.78,4.36,1.01,8.72,1.51,13.09,1.51,3.02,0,5.87-.29,8.56-.88Z"/>
      </g>
    </g>
    <g>
      <path class="cls-25" d="M2068.01,3099.23c-6.79,0-13.1-2.38-13.1-9.64,0-3.19.95-6.65,2.78-10.45,3.67-7.87,11.2-13.44,19.89-18.33l-.2-3.6c2.17-2.17,4.41-4.28,6.72-6.31l1.09.34c.34,6.72.41,14.8.41,25.11,0,5.7,0,10.04,2.04,12.08,2.1,1.83,3.73,2.38,7.74,2.38h.95v13.57h-.95c-8.35,0-12.01-1.56-14.93-7.67-4.14,1.56-8.28,2.51-12.42,2.51ZM2078.6,3071.4c-9.64,4.48-15.81,9.3-15.81,12.08,0,2.38,3.26,3.19,6.99,3.19,3.12,0,6.11-.48,9.09-1.43,0-5.36-.14-10.11-.27-13.85Z"/>
      <path class="cls-25" d="M2113.56,3063.87c4.68,8.42,6.85,14.59,6.85,18.94,0,4-.75,8.01-2.78,12.35-2.17,3.94-4.34,5.91-6.65,6.92-3.12,1.43-7.53,2.31-13.71,2.31h-.95c-3.26,0-4.75-3.53-4.75-6.79s1.49-6.79,4.75-6.79h1.49c7.81,0,14.8-1.56,14.8-2.65,0-1.63-3.53-8.48-6.65-13.85,2.31-4,4.62-7.53,6.92-10.59l.68.14ZM2109.14,3115.85c3.6,2.44,6.79,5.09,9.71,7.94-1.49,3.33-3.53,6.11-6.11,8.35-2.78-2.44-6.18-4.95-9.84-7.53l6.24-8.76Z"/>
      <path class="cls-25" d="M2183.46,3068.41c5.9,9.71,8.28,15.61,8.28,21.18,0,3.19-.27,4.96-.27,6.24,0,6.52-1.22,12.56-4.34,17.99-4.28,7.26-9.5,11.47-15.41,11.47-5.23,0-12.42-2.17-18.6-5.91l1.29-3.6c2.04.54,4.28.81,6.79.81,5.57,0,11.33-3.19,16.49-8.21,4.62-4.62,7.47-9.3,7.47-11.47,0-2.44-2.58-7.19-9.09-16.97,1.9-4.07,4.07-8.01,6.11-11.54h1.29ZM2175.73,3043.98c3.67,2.44,6.92,5.23,9.91,8.08-1.49,3.39-3.6,6.31-6.24,8.55-2.85-2.44-6.31-5.09-10.04-7.67l6.38-8.96Z"/>
      <path class="cls-25" d="M2222.15,3104.38h-1.15c-9.23,0-15.88-4.68-16.09-17.92-.07-7.74-.68-27.69-2.44-44.39,2.51-2.71,5.16-5.23,7.81-7.53l.95.47c1.09,9.77,1.22,20.9,1.22,30.41,0,7.13-.14,10.72-.14,16.29,0,6.79,2.71,9.09,8.89,9.09h.95v13.57Z"/>
      <path class="cls-25" d="M2253.91,3104.38h-.88c-6.18,0-11.95-1.22-15.54-7.4h-.2c-3.67,4.82-8.28,7.4-14.19,7.4h-.95c-3.26,0-4.75-3.53-4.75-6.79s1.49-6.79,4.75-6.79h.95c4.55,0,6.99-.95,9.23-2.31,3.73-2.31,4.07-6.65,5.57-9.77,1.56-1.09,3.33-2.31,5.43-3.53l.48.41c-.81,2.85-1.29,4.89-1.29,6.24,0,3.19.75,5.23,3.33,6.99,2.04,1.22,4.34,1.97,7.26,1.97h.81v13.57ZM2229.28,3117.08c3.12,2.78,5.7,5.63,7.74,8.42-1.76,2.58-4,4.89-6.65,6.92-2.58-2.78-5.23-5.43-7.94-8.08l6.85-7.26ZM2243.6,3116.46c3.12,2.78,5.7,5.63,7.74,8.42-1.76,2.58-4,4.89-6.65,6.92-2.58-2.78-5.23-5.43-7.94-8.08l6.85-7.26Z"/>
      <path class="cls-25" d="M2271.15,3063.87c4.68,8.42,6.85,14.59,6.85,18.94,0,4-.75,8.01-2.78,12.35-2.17,3.94-4.34,5.91-6.65,6.92-3.12,1.43-7.53,2.31-13.71,2.31h-.95c-3.26,0-4.75-3.53-4.75-6.79s1.49-6.79,4.75-6.79h1.49c7.81,0,14.8-1.56,14.8-2.65,0-1.63-3.53-8.48-6.65-13.85,2.31-4,4.62-7.53,6.92-10.59l.68.14ZM2264.03,3042.76c3.6,2.44,6.79,5.09,9.71,7.94-1.49,3.33-3.53,6.11-6.11,8.35-2.78-2.44-6.18-4.95-9.84-7.53l6.24-8.75Z"/>
      <path class="cls-25" d="M2335.56,3104.38h-1.15c-9.23,0-15.88-4.68-16.09-17.92-.07-7.74-.68-27.69-2.44-44.39,2.51-2.71,5.16-5.23,7.81-7.53l.95.47c1.09,9.77,1.22,20.9,1.22,30.41,0,7.13-.14,10.72-.14,16.29,0,6.79,2.71,9.09,8.89,9.09h.95v13.57Z"/>
      <path class="cls-25" d="M2370.72,3081.58c-7.4-2.51-13.23-3.6-17.1-3.6-2.58,0-4.41.41-5.63,1.22l-3.12,7.13h-1.36l-4.41-8.62c1.63-8.42,7.74-12.15,14.8-12.15,4.62,0,10.93,1.7,18.8,4.68,6.58,2.44,11.13,3.19,16.76,3.19h5.02l.14.54c-1.43,2.78-3.26,5.97-5.63,9.43-4.82,0-7.94.81-11.61,4.07-12.01,10.86-21.04,16.9-40.86,16.9h-.95c-3.26,0-4.75-3.53-4.75-6.79s1.49-6.79,4.75-6.79h.95c14.39,0,23.48-2.1,34.21-8.89v-.34ZM2360.2,3111.78c3.6,2.44,6.79,5.09,9.71,7.94-1.49,3.33-3.53,6.11-6.11,8.35-2.78-2.44-6.18-4.95-9.84-7.53l6.24-8.76Z"/>
      <path class="cls-25" d="M2432.14,3104.38h-1.15c-2.78,0-4.95-.61-7.06-1.29,0,6.99-2.04,11.47-4.41,15.34-3.73,5.9-8.14,9.84-13.71,9.84-5.02,0-10.86-1.97-18.05-6.72l1.49-3.39c2.58.88,4.62,1.15,6.11,1.15,5.7,0,10.59-2.31,14.8-6.24,4.48-4.07,7.13-8.82,7.94-12.96-2.65-3.39-5.23-7.53-7.53-12.56,1.56-3.67,3.12-7.06,4.82-10.04h1.02c3.53,7.87,7.19,13.3,14.8,13.3h.95v13.57Z"/>
      <path class="cls-25" d="M2433.09,3104.38h-.95c-3.26,0-4.75-3.53-4.75-6.79s1.49-6.79,4.75-6.79h.95c1.9,0,4.95-.34,9.77-1.09-.27-2.38-.48-4.75-.48-7.13.07-9.1,4.41-15.95,10.79-20.63.54-2.58,1.29-5.09,2.17-7.53h1.15c4.48,4.07,9.57,8.08,15.34,12.01,9.77,6.58,17.44,11.54,17.44,21.58,0,3.05-.68,6.11-2.1,9.03-2.44,5.09-6.11,7.33-11.06,7.33-6.24,0-14.25-1.7-23.21-4.28-8.01,3.05-14.52,4.28-19.82,4.28ZM2464.52,3081.99c0-5.09-3.39-10.25-7.6-10.25s-9.3,5.02-9.3,8.21c0,3.39,4.14,6.65,8.76,8.08,5.09-1.15,8.14-3.87,8.14-6.04ZM2478.16,3092.78c2.58,0,4.07-.47,4.07-1.49,0-3.05-4.95-7.06-12.35-11.47-.54,3.87-1.76,7.47-3.46,11,4.41,1.29,8.55,1.97,11.74,1.97Z"/>
      <path class="cls-25" d="M2549.7,3099.97c-10.45,0-15.68-6.04-15.68-13.71,0-5.77,1.76-10.72,5.36-15,3.6-3.8,7.4-6.24,11.4-6.24,7.53,0,14.12,11.33,14.12,27.35,0,9.91-2.78,17.24-7.06,23.55-5.91,7.74-11.06,10.25-15.88,10.25-6.52,0-13.37-2.92-20.22-7.6l1.42-3.73c2.44.95,5.02,1.56,7.87,1.56,5.63,0,11.33-2.31,16.76-6.31,4.41-3.26,7.67-6.99,9.77-11-2.1.61-5.02.88-7.87.88ZM2547.59,3076.35c-4.62,0-7.53,2.65-7.53,4.89,0,3.12,5.23,6.38,12.49,6.38,2.17,0,4-.13,5.63-.41-1.7-6.11-6.45-10.86-10.59-10.86Z"/>
      <path class="cls-25" d="M2645.39,3071.81c2.99,5.63,4.82,11.13,7.26,15.41,1.42,2.38,6.31,3.6,9.37,3.6h.95v13.57h-.95c-4.14,0-7.33-.81-9.64-2.44h-.2c-.48,5.36-2.04,10.25-4.34,14.52-6.18,7.06-13.91,10.72-23.55,10.72-12.35,0-20.7-7.74-20.7-23.28,0-6.18,1.97-12.69,5.43-19.21l3.67,1.83c-2.17,4.41-3.12,8.21-3.12,11.74,0,10.52,6.72,15.34,16.08,15.34s19.48-6.65,20.9-11c-.47-4.96-3.26-11.95-8.48-20.84,1.9-3.33,4-6.65,6.45-9.98h.88ZM2625.91,3050.29c4.28,2.71,7.94,5.63,11.06,8.75-1.76,3.26-4,6.52-6.85,9.64-3.53-3.12-7.26-5.97-11.06-8.62l6.85-9.77Z"/>
      <path class="cls-25" d="M2680.62,3061.62c10.18,8.82,13.1,13.78,13.1,21.65,0,4-1.29,8.14-3.26,12.29-2.85,5.84-11.88,8.82-26.54,8.82h-.95c-3.26,0-4.75-3.53-4.75-6.79s1.49-6.79,4.75-6.79h.95c13.57,0,22.94-2.24,22.94-5.29,0-5.7-9.09-13.64-22.87-22.94-.88-3.05-1.36-5.91-1.36-8.55,0-4.48,2.1-7.8,6.79-9.98,7.06-3.39,19.82-8.08,35.02-13.1l.47.47c-1.76,3.73-3.73,7.53-5.84,11.27-11.54,3.6-21.65,7.19-30.13,10.93v.41c4.82,1.02,9.5,1.76,13.91,2.38l-2.24,5.23Z"/>
      <path class="cls-25" d="M2795.46,3104.38h-.95c-4.62,0-8.01-1.63-10.45-4.68h-.27c-.27,3.46-1.36,6.92-2.92,10.25-5.36,7.19-13.57,11.13-21.58,11.13-14.86,0-19.82-11.4-19.82-21.38,0-7.06,1.83-14.12,5.29-20.57l3.73,1.63c-1.97,4.82-2.92,8.62-2.92,11.47,0,8.96,5.57,15.14,14.73,15.14,5.29,0,12.9-2.78,17.58-8.35.14-3.19.2-6.24.2-9.03,0-11-1.09-29.73-2.04-45.81,2.31-2.71,4.75-5.16,7.19-7.19l1.09.54c.48,10.59.81,24.09.88,41.06,0,4.41.75,7.33,2.44,9.37,1.83,1.97,4.14,2.85,6.86,2.85h.95v13.57Z"/>
      <path class="cls-25" d="M2827.22,3104.38h-.88c-6.18,0-11.95-1.22-15.54-7.4h-.2c-3.67,4.82-8.28,7.4-14.19,7.4h-.95c-3.26,0-4.75-3.53-4.75-6.79s1.49-6.79,4.75-6.79h.95c4.55,0,6.99-.95,9.23-2.31,3.73-2.31,4.07-6.65,5.57-9.77,1.56-1.09,3.33-2.31,5.43-3.53l.48.41c-.81,2.85-1.29,4.89-1.29,6.24,0,3.19.75,5.23,3.33,6.99,2.04,1.22,4.34,1.97,7.26,1.97h.81v13.57ZM2802.58,3117.08c3.12,2.78,5.7,5.63,7.74,8.42-1.77,2.58-4,4.89-6.65,6.92-2.58-2.78-5.23-5.43-7.94-8.08l6.85-7.26ZM2816.9,3116.46c3.12,2.78,5.7,5.63,7.74,8.42-1.76,2.58-4,4.89-6.65,6.92-2.58-2.78-5.23-5.43-7.94-8.08l6.85-7.26Z"/>
      <path class="cls-25" d="M2867.2,3098.82c-1.63,5.36-4.14,8.35-8.01,8.35-5.02,0-12.9-3.94-18.6-10.38h-.27c-2.92,5.84-7.19,7.6-12.15,7.6h-.95c-3.26,0-4.75-3.53-4.75-6.79s1.49-6.79,4.75-6.79h.95c9.3,0,10.45-3.8,12.69-10.72,1.15-3.39,2.65-6.45,5.16-8.76,2.58-2.38,5.23-3.53,7.81-3.53,7.94,0,11,9.03,15.14,17.71,1.76,3.6,5.16,5.29,9.98,5.29h.95v13.57h-.95c-3.94,0-8.35-.81-11.61-5.57h-.14ZM2861.16,3093.52c1.02,0,1.56-.48,1.56-1.42,0-3.39-4.75-13.03-10.66-13.03-2.78,0-5.09,1.56-6.79,4.41,2.44,5.63,11.47,10.04,15.88,10.04Z"/>
      <path class="cls-25" d="M2896.24,3064.27c18.12,13.64,23.01,26.54,34.95,26.54h.95v13.57h-.95c-13.03,0-13.98-4.82-24.23-17.24h-.2c-.75,5.63-2.99,9.64-6.11,12.76-3.33,2.99-9.84,4.48-19.82,4.48h-.95c-3.26,0-4.75-3.53-4.75-6.79s1.49-6.79,4.75-6.79h.95c8.96,0,17.04-.41,19.07-3.67-.68-4.89-7.33-12.9-19.21-23.75-.68-1.76-1.09-4.07-1.09-6.58,0-3.73.88-6.72,2.65-8.82.95-1.02,2.31-2.04,4-2.92,9.3-4.89,23.35-9.43,38.75-14.19l.54.54c-2.04,4.34-3.94,7.81-5.77,10.93-13.51,3.94-25.04,8.08-33.39,12.08l.07.34c3.6,1.29,7.74,2.65,12.62,4.07l-2.85,5.43Z"/>
      <path class="cls-25" d="M2949.39,3063.87c4.68,8.42,6.85,14.59,6.85,18.94,0,4-.75,8.01-2.78,12.35-2.17,3.94-4.34,5.91-6.65,6.92-3.12,1.43-7.53,2.31-13.71,2.31h-.95c-3.26,0-4.75-3.53-4.75-6.79s1.49-6.79,4.75-6.79h1.49c7.81,0,14.8-1.56,14.8-2.65,0-1.63-3.53-8.48-6.65-13.85,2.31-4,4.62-7.53,6.92-10.59l.68.14ZM2936.97,3045.13c3.12,2.78,5.7,5.63,7.74,8.42-1.77,2.58-4,4.89-6.65,6.92-2.58-2.78-5.23-5.43-7.94-8.08l6.85-7.26ZM2951.29,3044.52c3.12,2.78,5.7,5.63,7.74,8.42-1.76,2.58-4,4.89-6.65,6.92-2.58-2.78-5.23-5.43-7.94-8.08l6.85-7.26Z"/>
      <path class="cls-25" d="M3018.07,3099.97c-10.45,0-15.68-6.04-15.68-13.71,0-5.77,1.76-10.72,5.36-15,3.6-3.8,7.4-6.24,11.4-6.24,7.53,0,14.12,11.33,14.12,27.35,0,9.91-2.78,17.24-7.06,23.55-5.9,7.74-11.06,10.25-15.88,10.25-6.52,0-13.37-2.92-20.23-7.6l1.43-3.73c2.44.95,5.02,1.56,7.87,1.56,5.63,0,11.33-2.31,16.76-6.31,4.41-3.26,7.67-6.99,9.77-11-2.1.61-5.02.88-7.87.88ZM3015.97,3076.35c-4.62,0-7.53,2.65-7.53,4.89,0,3.12,5.23,6.38,12.49,6.38,2.17,0,4-.13,5.63-.41-1.7-6.11-6.45-10.86-10.59-10.86Z"/>
      <path class="cls-25" d="M3067.14,3068.41c5.9,9.71,8.28,15.61,8.28,21.18,0,3.19-.27,4.96-.27,6.24,0,6.52-1.22,12.56-4.34,17.99-4.28,7.26-9.5,11.47-15.41,11.47-5.23,0-12.42-2.17-18.6-5.91l1.29-3.6c2.04.54,4.28.81,6.79.81,5.56,0,11.33-3.19,16.49-8.21,4.62-4.62,7.47-9.3,7.47-11.47,0-2.44-2.58-7.19-9.09-16.97,1.9-4.07,4.07-8.01,6.11-11.54h1.29Z"/>
      <path class="cls-25" d="M3200.85,3104.38h-.95c-6.52,0-11.47-1.56-14.39-5.5h-.2c-11.61,5.09-24.43,8.48-36.85,8.48-11.33,0-18.66-2.38-23.89-5.7-6.04-3.94-9.77-9.98-9.77-18.8,0-5.77,1.22-11.74,4.07-17.99l4.14,1.43c-.95,2.99-1.56,5.7-1.56,8.14,0,10.32,8.62,18.8,30.27,18.8,9.37,0,21.65-2.04,30.2-5.36l3.19-8.82c1.97-1.49,3.8-2.71,5.36-3.67l.68.54c-.95,3.12-1.63,5.77-1.63,7.67,0,4.89,4.75,7.19,10.38,7.19h.95v13.57ZM3144.58,3045.2c3.39,2.85,6.58,5.77,9.57,8.75-2.04,2.92-4.28,5.7-6.72,8.48-3.26-3.19-6.58-6.11-9.84-8.76l6.99-8.48ZM3161.01,3044.32c3.39,2.85,6.58,5.77,9.57,8.75-2.04,2.92-4.28,5.7-6.72,8.48-3.26-3.19-6.58-6.11-9.84-8.75l6.99-8.48Z"/>
      <path class="cls-25" d="M3218.5,3061.62c10.18,8.82,13.1,13.78,13.1,21.65,0,4-1.29,8.14-3.26,12.29-2.85,5.84-11.88,8.82-26.54,8.82h-.95c-3.26,0-4.75-3.53-4.75-6.79s1.49-6.79,4.75-6.79h.95c13.57,0,22.94-2.24,22.94-5.29,0-5.7-9.09-13.64-22.87-22.94-.88-3.05-1.36-5.91-1.36-8.55,0-4.48,2.1-7.8,6.79-9.98,7.06-3.39,19.82-8.08,35.02-13.1l.48.47c-1.76,3.73-3.73,7.53-5.84,11.27-11.54,3.6-21.65,7.19-30.13,10.93v.41c4.82,1.02,9.5,1.76,13.91,2.38l-2.24,5.23Z"/>
      <path class="cls-25" d="M3249.72,3083.14c0,6.31,3.39,8.62,9.84,8.62,4.28,0,9.16-.95,14.73-3.8-2.04-7.74-8.48-14.05-17.92-19.28-2.31-1.29-3.73-2.44-3.73-4,0-2.24,1.83-6.04,4.34-10.45h.47c6.11,3.87,12.01,8.42,17.1,14.59,4.14,4.95,6.24,10.66,6.24,16.97,0,4.48-1.22,8.89-3.39,12.76-5.36,4.21-11.61,6.72-19,6.72-8.35,0-13.44-4.55-13.44-14.73,0-1.9.07-4.41.41-7.4h4.34Z"/>
      <path class="cls-25" d="M3329.47,3090.81v13.57h-5.09c-2.85,12.28-11.4,24.77-21.99,24.77-6.11,0-12.76-2.65-19.95-7.53l1.56-3.6c2.51,1.09,5.23,1.9,8.28,1.9,5.84,0,11.54-2.78,16.97-6.99,3.73-2.85,6.58-5.84,7.87-8.55h-1.9c-12.96,0-21.58-4.14-21.58-16.36,0-4.96,1.7-9.43,5.16-13.51,3.26-3.87,6.92-6.04,10.86-6.04,7.6,0,12.49,8.21,15.2,22.33h4.62ZM3306.39,3079.54c-4.34,0-6.85,3.26-6.85,4.96,0,3.94,6.92,6.52,15.81,6.52.95,0,1.83-.07,2.65-.2-2.51-6.79-6.38-11.27-11.61-11.27Z"/>
      <path class="cls-25" d="M3347.11,3061.62c10.18,8.82,13.1,13.78,13.1,21.65,0,4-1.29,8.14-3.26,12.29-2.85,5.84-11.88,8.82-26.54,8.82h-.95c-3.26,0-4.75-3.53-4.75-6.79s1.49-6.79,4.75-6.79h.95c13.57,0,22.94-2.24,22.94-5.29,0-5.7-9.09-13.64-22.87-22.94-.88-3.05-1.36-5.91-1.36-8.55,0-4.48,2.1-7.8,6.79-9.98,7.06-3.39,19.82-8.08,35.02-13.1l.47.47c-1.76,3.73-3.73,7.53-5.84,11.27-11.54,3.6-21.65,7.19-30.13,10.93v.41c4.82,1.02,9.5,1.76,13.91,2.38l-2.24,5.23Z"/>
      <path class="cls-25" d="M3469.48,3090.81v13.57h-3.67c.2,1.09.27,2.17.27,3.33,0,2.51-1.36,5.91-3.53,9.84-9.57,8.42-21.85,12.42-31.36,12.42-15.61,0-25.32-9.77-25.32-26.2,0-8.21,2.85-16.97,7.53-26.06l3.8,1.83c-2.85,6.58-4.21,11.81-4.21,15.81,0,13.85,8.48,20.56,20.43,20.56,8.48,0,17.04-2.17,25.66-8.14-2.58-2.92-9.71-4.21-19.75-4.62l-.95-1.22,6.38-11.13h24.71Z"/>
      <path class="cls-25" d="M3485.84,3064.27c18.12,13.64,23.01,26.54,34.95,26.54h.95v13.57h-.95c-13.03,0-13.98-4.82-24.23-17.24h-.2c-.75,5.63-2.99,9.64-6.11,12.76-3.33,2.99-9.84,4.48-19.82,4.48h-.95c-3.26,0-4.75-3.53-4.75-6.79s1.49-6.79,4.75-6.79h.95c8.96,0,17.04-.41,19.07-3.67-.68-4.89-7.33-12.9-19.21-23.75-.68-1.76-1.09-4.07-1.09-6.58,0-3.73.88-6.72,2.65-8.82.95-1.02,2.31-2.04,4-2.92,9.3-4.89,23.35-9.43,38.75-14.19l.54.54c-2.04,4.34-3.94,7.81-5.77,10.93-13.51,3.94-25.04,8.08-33.39,12.08l.07.34c3.6,1.29,7.74,2.65,12.62,4.07l-2.85,5.43Z"/>
      <path class="cls-25" d="M3577.4,3070.04c1.36,7.67,1.56,11.4,1.56,15.47,0,3.67-1.76,8.42-4,11.88-3.05,4.21-6.24,6.79-9.91,6.79-3.39,0-6.52-1.76-9.5-5.77h-.14c-3.8,4-7.94,5.97-11.2,5.97-3.46,0-6.52-1.42-7.26-5.36h-.2c-3.39,3.26-7.81,5.36-14.05,5.36h-.95c-3.26,0-4.75-3.53-4.75-6.79s1.49-6.79,4.75-6.79h.95c6.24,0,10.32-1.29,12.76-3.67,1.9-1.76,3.73-4.75,5.29-6.86,2.1-1.09,4.14-1.9,6.11-2.58l.48.75c-2.58,3.94-4.21,7.13-4.21,9.09,0,2.24,1.56,3.26,3.12,3.26,1.7-.07,3.12-.54,4.62-1.29,4.34-2.17,4.62-6.11,5.7-10.32,1.76-1.29,3.46-2.31,5.09-3.19l.61.47c-.75,2.24-1.09,4.41-1.09,6.52s.54,3.87,1.97,5.36c1.42,1.42,3.12,2.24,5.02,2.24,1.56,0,2.85-.41,3.33-1.29-.68-4.07-1.43-8.21-2.51-11.74,2.38-2.65,4.75-5.29,7.47-7.94l.95.41ZM3549.91,3052.73c3.26,2.65,5.97,5.36,8.14,8.01-1.56,2.71-3.73,5.09-6.24,7.26-2.71-2.65-5.5-5.09-8.35-7.6l6.45-7.67ZM3555.68,3037.8c3.26,2.65,5.97,5.36,8.14,8.01-1.56,2.71-3.73,5.09-6.24,7.26-2.71-2.65-5.5-5.09-8.35-7.6l6.45-7.67ZM3564.77,3052.05c3.26,2.65,5.97,5.36,8.14,8.01-1.56,2.71-3.73,5.09-6.24,7.26-2.71-2.65-5.5-5.09-8.35-7.6l6.45-7.67Z"/>
      <path class="cls-25" d="M3628.78,3104.38h-1.15c-2.78,0-4.95-.61-7.06-1.29,0,6.99-2.04,11.47-4.41,15.34-3.73,5.9-8.14,9.84-13.71,9.84-5.02,0-10.86-1.97-18.05-6.72l1.49-3.39c2.58.88,4.62,1.15,6.11,1.15,5.7,0,10.59-2.31,14.8-6.24,4.48-4.07,7.13-8.82,7.94-12.96-2.65-3.39-5.23-7.53-7.53-12.56,1.56-3.67,3.12-7.06,4.82-10.04h1.02c3.53,7.87,7.19,13.3,14.8,13.3h.95v13.57ZM3606.04,3053.07c3.6,2.44,6.79,5.09,9.71,7.94-1.49,3.33-3.53,6.11-6.11,8.35-2.78-2.44-6.18-4.95-9.84-7.53l6.24-8.75Z"/>
      <path class="cls-25" d="M3646.02,3063.87c4.68,8.42,6.85,14.59,6.85,18.94,0,4-.75,8.01-2.78,12.35-2.17,3.94-4.34,5.91-6.65,6.92-3.12,1.43-7.53,2.31-13.71,2.31h-.95c-3.26,0-4.75-3.53-4.75-6.79s1.49-6.79,4.75-6.79h1.49c7.81,0,14.8-1.56,14.8-2.65,0-1.63-3.53-8.48-6.65-13.85,2.31-4,4.62-7.53,6.92-10.59l.68.14ZM3634.95,3116.12c3.12,2.78,5.7,5.63,7.74,8.42-1.77,2.58-4,4.89-6.65,6.92-2.58-2.78-5.23-5.43-7.94-8.08l6.85-7.26ZM3643.84,3130.45c3.12,2.78,5.7,5.63,7.74,8.42-1.76,2.58-4,4.89-6.65,6.92-2.58-2.78-5.23-5.43-7.94-8.08l6.85-7.26ZM3649.27,3115.51c3.12,2.78,5.7,5.63,7.74,8.42-1.76,2.58-4,4.89-6.65,6.92-2.58-2.78-5.23-5.43-7.94-8.08l6.85-7.26Z"/>
      <path class="cls-25" d="M3706.29,3056.13l1.42-.95c4.75,3.94,10.11,7.4,14.66,11.47,5.29,4.75,7.47,9.09,7.47,16.29,0,6.24-1.49,10.52-3.33,14.25-3.8,5.23-10.11,8.21-16.15,8.21-13.57,0-15.54-12.42-15.54-17.04,0-9.91,4.28-16.76,10.45-24.3l1.02-7.94ZM3701.2,3083.82c0,4.07,4.14,7.81,10.25,7.81,4.48,0,10.18-2.1,12.28-5.7-.54-4.48-5.16-9.16-14.05-14.18-5.97,5.23-8.48,9.16-8.48,12.08Z"/>
      <path class="cls-25" d="M3787.8,3104.38h-.95c-6.86,0-12.15-2.71-14.66-11.4h-.2c-1.02,3.46-2.24,5.43-3.73,6.58-3.94,3.12-8.69,4.82-14.59,4.82-7.13,0-12.01-4.21-12.01-15.81,0-1.36,0-3.33.14-5.77l4.41-.41c.27,5.29,2.92,8.42,8.62,8.42,3.12,0,6.45-.81,9.98-2.38,2.51-1.09,4.28-2.38,4.28-4.48,0-2.65-2.44-13.24-5.84-22.67,1.83-3.19,3.87-6.24,6.24-9.3l1.15.34c1.7,6.18,3.46,13.98,5.84,27.22,1.36,7.74,4.96,11.27,10.38,11.27h.95v13.57Z"/>
      <path class="cls-25" d="M3805.04,3063.87c4.68,8.42,6.85,14.59,6.85,18.94,0,4-.75,8.01-2.78,12.35-2.17,3.94-4.34,5.91-6.65,6.92-3.12,1.43-7.53,2.31-13.71,2.31h-.95c-3.26,0-4.75-3.53-4.75-6.79s1.49-6.79,4.75-6.79h1.49c7.81,0,14.8-1.56,14.8-2.65,0-1.63-3.53-8.48-6.65-13.85,2.31-4,4.62-7.53,6.92-10.59l.68.14ZM3797.91,3042.76c3.6,2.44,6.79,5.09,9.71,7.94-1.49,3.33-3.53,6.11-6.11,8.35-2.78-2.44-6.18-4.95-9.84-7.53l6.24-8.75Z"/>
      <path class="cls-25" d="M3840.06,3099.97c-10.45,0-15.68-6.04-15.68-13.71,0-5.77,1.76-10.72,5.36-15,3.6-3.8,7.4-6.24,11.4-6.24,7.53,0,14.12,11.33,14.12,27.35,0,9.91-2.78,17.24-7.06,23.55-5.91,7.74-11.06,10.25-15.88,10.25-6.52,0-13.37-2.92-20.22-7.6l1.42-3.73c2.44.95,5.02,1.56,7.87,1.56,5.63,0,11.33-2.31,16.76-6.31,4.41-3.26,7.67-6.99,9.77-11-2.1.61-5.02.88-7.87.88ZM3837.96,3076.35c-4.62,0-7.53,2.65-7.53,4.89,0,3.12,5.23,6.38,12.49,6.38,2.17,0,4-.13,5.63-.41-1.7-6.11-6.45-10.86-10.59-10.86Z"/>
      <path class="cls-25" d="M3901.82,3104.38h-1.15c-2.78,0-4.96-.61-7.06-1.29,0,6.99-2.04,11.47-4.41,15.34-3.73,5.9-8.14,9.84-13.71,9.84-5.02,0-10.86-1.97-18.05-6.72l1.49-3.39c2.58.88,4.62,1.15,6.11,1.15,5.7,0,10.59-2.31,14.8-6.24,4.48-4.07,7.13-8.82,7.94-12.96-2.65-3.39-5.23-7.53-7.53-12.56,1.56-3.67,3.12-7.06,4.82-10.04h1.02c3.53,7.87,7.19,13.3,14.8,13.3h.95v13.57Z"/>
      <path class="cls-25" d="M3919.06,3063.87c4.68,8.42,6.85,14.59,6.85,18.94,0,4-.75,8.01-2.78,12.35-2.17,3.94-4.34,5.91-6.65,6.92-3.12,1.43-7.53,2.31-13.71,2.31h-.95c-3.26,0-4.75-3.53-4.75-6.79s1.49-6.79,4.75-6.79h1.49c7.81,0,14.8-1.56,14.8-2.65,0-1.63-3.53-8.48-6.65-13.85,2.31-4,4.62-7.53,6.92-10.59l.68.14ZM3908,3116.12c3.12,2.78,5.7,5.63,7.74,8.42-1.77,2.58-4,4.89-6.65,6.92-2.58-2.78-5.23-5.43-7.94-8.08l6.85-7.26ZM3916.89,3130.45c3.12,2.78,5.7,5.63,7.74,8.42-1.76,2.58-4,4.89-6.65,6.92-2.58-2.78-5.23-5.43-7.94-8.08l6.85-7.26ZM3922.32,3115.51c3.12,2.78,5.7,5.63,7.74,8.42-1.76,2.58-4,4.89-6.65,6.92-2.58-2.78-5.23-5.43-7.94-8.08l6.85-7.26Z"/>
      <path class="cls-25" d="M4031.8,3090.81v13.57h-3.8c-.61,4.21-1.36,7.53-2.51,10.25-7.13,10.32-19.62,17.1-32.1,17.1-15.68,0-25.99-10.04-25.99-27.76,0-7.13,1.56-13.98,4-20.56l4.21,1.49c-1.15,4.48-1.9,8.55-1.9,12.22,0,5.97,1.56,11.27,5.84,15.47,4.28,3.67,9.64,5.16,15.68,5.16s12.83-2.24,18.39-5.56c3.8-2.31,7.13-4.82,9.03-7.13l-.41-.68h-5.23c-12.96,0-21.58-4.14-21.58-16.36,0-4.96,1.63-9.57,5.09-13.64,3.26-3.87,6.99-6.04,10.93-6.04,7.6,0,12.83,8.21,15.54,22.47h4.82ZM3998.54,3047.1c3.26,2.65,5.97,5.36,8.14,8.01-1.56,2.71-3.73,5.09-6.24,7.26-2.71-2.65-5.5-5.09-8.35-7.6l6.45-7.67ZM4008.52,3079.47c-4.34,0-7.19,3.12-7.19,5.02,0,3.94,7.26,6.52,16.15,6.52.95,0,1.83-.07,2.65-.2-2.51-6.79-6.38-11.33-11.61-11.33ZM4013.4,3046.42c3.26,2.65,5.97,5.36,8.14,8.01-1.56,2.71-3.73,5.09-6.24,7.26-2.71-2.65-5.5-5.09-8.35-7.6l6.45-7.67Z"/>
      <path class="cls-25" d="M4063.56,3104.38h-.88c-6.18,0-11.95-1.22-15.54-7.4h-.2c-3.67,4.82-8.28,7.4-14.19,7.4h-.95c-3.26,0-4.75-3.53-4.75-6.79s1.49-6.79,4.75-6.79h.95c4.55,0,6.99-.95,9.23-2.31,3.73-2.31,4.07-6.65,5.57-9.77,1.56-1.09,3.33-2.31,5.43-3.53l.48.41c-.81,2.85-1.29,4.89-1.29,6.24,0,3.19.75,5.23,3.33,6.99,2.04,1.22,4.34,1.97,7.26,1.97h.81v13.57ZM4038.92,3117.08c3.12,2.78,5.7,5.63,7.74,8.42-1.77,2.58-4,4.89-6.65,6.92-2.58-2.78-5.23-5.43-7.94-8.08l6.85-7.26ZM4053.24,3116.46c3.12,2.78,5.7,5.63,7.74,8.42-1.76,2.58-4,4.89-6.65,6.92-2.58-2.78-5.23-5.43-7.94-8.08l6.85-7.26Z"/>
      <path class="cls-25" d="M4067.22,3090.81c14.66,0,24.3-.34,24.3-4.34,0-.34-.07-.68-.2-.95-2.38.27-4.89.34-7.4.34-11.54,0-17.85-4.07-17.85-12.96,0-5.29,1.9-9.98,5.36-13.71,3.26-3.53,6.92-5.77,10.79-5.77,9.23,0,15.41,16.63,15.41,32.24,0,17.65-11,18.73-33.12,18.73h-.95c-3.26,0-4.75-3.53-4.75-6.79s1.49-6.79,4.75-6.79h3.67ZM4071.03,3034.48c3.12,2.78,5.7,5.63,7.74,8.42-1.76,2.58-4,4.89-6.65,6.92-2.58-2.78-5.23-5.43-7.94-8.08l6.86-7.26ZM4079.17,3064.07c-4.62,0-7.33,2.51-7.33,4.55,0,3.8,7.13,6.45,17.78,6.72-2.51-7.13-5.97-11.27-10.45-11.27ZM4085.35,3033.87c3.12,2.78,5.7,5.63,7.74,8.42-1.77,2.58-4,4.89-6.65,6.92-2.58-2.78-5.23-5.43-7.94-8.08l6.85-7.26Z"/>
      <path class="cls-25" d="M4114.06,3083.14c0,6.31,3.39,8.62,9.84,8.62,4.28,0,9.16-.95,14.73-3.8-2.04-7.74-8.48-14.05-17.92-19.28-2.31-1.29-3.73-2.44-3.73-4,0-2.24,1.83-6.04,4.34-10.45h.47c6.11,3.87,12.01,8.42,17.1,14.59,4.14,4.95,6.24,10.66,6.24,16.97,0,4.48-1.22,8.89-3.39,12.76-5.36,4.21-11.61,6.72-19,6.72-8.35,0-13.44-4.55-13.44-14.73,0-1.9.07-4.41.41-7.4h4.34Z"/>
      <path class="cls-25" d="M4205.27,3099.97c-10.45,0-15.68-6.04-15.68-13.71,0-5.77,1.76-10.72,5.36-15,3.6-3.8,7.4-6.24,11.4-6.24,7.53,0,14.12,11.33,14.12,27.35,0,9.91-2.78,17.24-7.06,23.55-5.9,7.74-11.06,10.25-15.88,10.25-6.52,0-13.37-2.92-20.23-7.6l1.43-3.73c2.44.95,5.02,1.56,7.87,1.56,5.63,0,11.33-2.31,16.76-6.31,4.41-3.26,7.67-6.99,9.77-11-2.1.61-5.02.88-7.87.88ZM4203.17,3076.35c-4.62,0-7.53,2.65-7.53,4.89,0,3.12,5.23,6.38,12.49,6.38,2.17,0,4-.13,5.63-.41-1.7-6.11-6.45-10.86-10.59-10.86Z"/>
      <path class="cls-25" d="M4272.4,3099.23c-6.79,0-13.1-2.38-13.1-9.64,0-3.19.95-6.65,2.78-10.45,3.67-7.87,11.2-13.44,19.89-18.33l-.2-3.6c2.17-2.17,4.41-4.28,6.72-6.31l1.09.34c.34,6.72.41,14.8.41,25.11,0,5.7,0,10.04,2.04,12.08,2.1,1.83,3.73,2.38,7.74,2.38h.95v13.57h-.95c-8.35,0-12.01-1.56-14.93-7.67-4.14,1.56-8.28,2.51-12.42,2.51ZM4282.99,3071.4c-9.64,4.48-15.81,9.3-15.81,12.08,0,2.38,3.26,3.19,6.99,3.19,3.12,0,6.11-.48,9.09-1.43,0-5.36-.13-10.11-.27-13.85Z"/>
      <path class="cls-25" d="M4329.89,3104.38h-.95c-6.11,0-11.2-1.83-14.19-7.6h-.27c-2.99,4.89-7.13,7.6-12.83,7.6h-.95c-3.26,0-4.75-3.53-4.75-6.79s1.49-6.79,4.75-6.79h1.49c6.92,0,9.98-3.33,9.98-9.09,0-12.22-.75-27.42-2.04-40.18,2.58-2.58,5.09-5.02,7.67-7.06l.88.41c1.09,9.64,1.15,20.9,1.15,30.41,0,7.13-.14,13.17-.14,16.29,0,6.45,1.7,9.23,8.82,9.23h1.36v13.57Z"/>
      <path class="cls-25" d="M4382.08,3064.07c8.28,0,14.59,6.45,14.59,16.36,0,5.02-2.04,11.06-5.16,14.59-5.36,6.04-13.98,9.37-28.98,9.37-8.08,0-14.39-1.7-17.44-6.85h-.34c-3.53,4.34-7.94,6.85-13.98,6.85h-.88c-3.26,0-4.75-3.53-4.75-6.79s1.49-6.79,4.75-6.79h.95c5.09,0,8.62-1.36,10.45-4.07,1.22-1.76,2.24-5.29,3.26-8.08,1.63-1.22,3.26-2.51,5.09-3.73l.47.34c-.61,2.58-.95,4.68-.95,6.18,0,3.46,1.42,5.5,3.8,6.79,8.69-14.39,19.14-24.16,29.12-24.16ZM4367.83,3090.81c8.08,0,16.97-1.7,22.12-5.84-1.36-5.97-5.29-9.09-9.84-9.09-7.26,0-14.8,5.23-21.72,14.25,2.85.41,6.04.68,9.43.68Z"/>
      <path class="cls-25" d="M4446.35,3090.81v13.57h-5.09c-2.85,12.28-11.4,24.77-21.99,24.77-6.11,0-12.76-2.65-19.95-7.53l1.56-3.6c2.51,1.09,5.23,1.9,8.28,1.9,5.84,0,11.54-2.78,16.97-6.99,3.73-2.85,6.58-5.84,7.87-8.55h-1.9c-12.96,0-21.58-4.14-21.58-16.36,0-4.96,1.7-9.43,5.16-13.51,3.26-3.87,6.92-6.04,10.86-6.04,7.6,0,12.49,8.21,15.2,22.33h4.62ZM4423.28,3079.54c-4.34,0-6.85,3.26-6.85,4.96,0,3.94,6.92,6.52,15.81,6.52.95,0,1.83-.07,2.65-.2-2.51-6.79-6.38-11.27-11.61-11.27Z"/>
      <path class="cls-25" d="M4481.65,3081.58c-7.4-2.51-13.37-3.6-17.24-3.6-2.58,0-4.41.41-5.63,1.22l-3.12,7.13h-1.36l-4.41-8.62c1.63-8.42,7.74-12.15,14.8-12.15,4.62,0,10.93,1.7,18.8,4.68,6.58,2.44,11.13,3.19,16.76,3.19h5.02l.14.54c-1.43,2.78-3.26,5.97-5.63,9.43-4.82,0-7.94.81-11.61,4.07-12.01,10.86-21.04,16.9-40.86,16.9h-.95c-3.26,0-4.75-3.53-4.75-6.79s1.49-6.79,4.75-6.79h.95c14.39,0,23.62-2.1,34.34-8.89v-.34Z"/>
      <path class="cls-25" d="M4561.39,3104.38h-1.15c-9.23,0-15.88-4.68-16.08-17.92-.07-7.74-.68-27.69-2.44-44.39,2.51-2.71,5.16-5.23,7.81-7.53l.95.47c1.09,9.77,1.22,20.9,1.22,30.41,0,7.13-.14,10.72-.14,16.29,0,6.79,2.71,9.09,8.89,9.09h.95v13.57Z"/>
      <path class="cls-25" d="M4578.63,3063.87c4.68,8.42,6.85,14.59,6.85,18.94,0,4-.75,8.01-2.78,12.35-2.17,3.94-4.34,5.91-6.65,6.92-3.12,1.43-7.53,2.31-13.71,2.31h-.95c-3.26,0-4.75-3.53-4.75-6.79s1.49-6.79,4.75-6.79h1.49c7.81,0,14.8-1.56,14.8-2.65,0-1.63-3.53-8.48-6.65-13.85,2.31-4,4.62-7.53,6.92-10.59l.68.14ZM4574.22,3115.85c3.6,2.44,6.79,5.09,9.71,7.94-1.49,3.33-3.53,6.11-6.11,8.35-2.78-2.44-6.18-4.95-9.84-7.53l6.24-8.76Z"/>
      <path class="cls-25" d="M2784.77,3271.18h-1.15c-2.78,0-4.96-.61-7.06-1.29,0,6.99-2.04,11.47-4.41,15.34-3.73,5.91-8.14,9.84-13.71,9.84-5.02,0-10.86-1.97-18.05-6.72l1.49-3.39c2.58.88,4.62,1.15,6.11,1.15,5.7,0,10.59-2.31,14.8-6.24,4.48-4.07,7.13-8.82,7.94-12.96-2.65-3.39-5.23-7.53-7.53-12.56,1.56-3.67,3.12-7.06,4.82-10.04h1.02c3.53,7.87,7.19,13.3,14.8,13.3h.95v13.57Z"/>
      <path class="cls-25" d="M2816.53,3271.18h-.88c-6.18,0-11.95-1.22-15.54-7.4h-.2c-3.67,4.82-8.28,7.4-14.19,7.4h-.95c-3.26,0-4.75-3.53-4.75-6.79s1.49-6.79,4.75-6.79h.95c4.55,0,6.99-.95,9.23-2.31,3.73-2.31,4.07-6.65,5.57-9.77,1.56-1.09,3.33-2.31,5.43-3.53l.48.41c-.81,2.85-1.29,4.89-1.29,6.24,0,3.19.75,5.23,3.33,6.99,2.04,1.22,4.34,1.97,7.26,1.97h.81v13.57ZM2791.89,3283.88c3.12,2.78,5.7,5.63,7.74,8.42-1.77,2.58-4,4.89-6.65,6.92-2.58-2.78-5.23-5.43-7.94-8.08l6.85-7.26ZM2806.21,3283.26c3.12,2.78,5.7,5.63,7.74,8.42-1.76,2.58-4,4.89-6.65,6.92-2.58-2.78-5.23-5.43-7.94-8.08l6.85-7.26Z"/>
      <path class="cls-25" d="M2868.79,3271.18h-.95c-14.12,0-15.27-7.06-24.3-17.04h-.27c-3.12,15-11.33,17.04-25.79,17.04h-.95c-3.26,0-4.75-3.53-4.75-6.79s1.49-6.79,4.75-6.79h.95c10.93,0,19.07-1.76,19.07-4,0-3.05-6.86-11.13-19.21-19.62-.48-2.24-.88-4.62-.88-8.14s1.29-6.18,3.26-7.8c8.69-5.43,24.03-10.86,42.28-16.29l.41.41c-1.76,3.73-3.67,7.33-5.63,10.86-11.61,3.33-22.8,7.26-33.53,12.01v.27c3.66,1.09,8.01,2.1,13.17,3.19l-2.58,5.23c7.6,5.43,14.79,11.88,22.26,18.94,3.39,3.26,6.38,4.96,11.74,4.96h.95v13.57ZM2855.62,3198.77c-13.17,4.07-25.04,8.35-35.63,13.44l-.34-.34c.41-1.76,1.02-3.53,1.83-5.43,10.86-5.09,23.48-9.5,37.06-13.51l.34.41-3.26,5.43Z"/>
      <path class="cls-25" d="M2886.03,3230.66c4.68,8.42,6.85,14.59,6.85,18.94,0,4-.75,8.01-2.78,12.35-2.17,3.94-4.34,5.9-6.65,6.92-3.12,1.42-7.53,2.31-13.71,2.31h-.95c-3.26,0-4.75-3.53-4.75-6.79s1.49-6.79,4.75-6.79h1.49c7.81,0,14.8-1.56,14.8-2.65,0-1.63-3.53-8.48-6.65-13.85,2.31-4,4.62-7.53,6.92-10.59l.68.13ZM2881.62,3282.65c3.6,2.44,6.79,5.09,9.71,7.94-1.49,3.33-3.53,6.11-6.11,8.35-2.78-2.44-6.18-4.96-9.84-7.53l6.24-8.75Z"/>
      <path class="cls-25" d="M2989.67,3265.48c-2.44,3.46-5.77,6.04-12.35,6.04-.88,5.84-2.58,10.59-5.29,14.05-4.75,5.9-12.42,9.71-20.63,9.71-13.85,0-20.7-10.59-20.7-22.94,0-6.04,1.7-13.44,5.63-19.75l3.67,1.83c-2.31,5.02-3.19,8.82-3.19,11.27,0,4.48.81,8.55,4.82,11.95,3.33,2.51,7.06,3.87,11.33,3.87,5.16,0,9.43-1.7,13.23-4.28,3.19-2.17,5.57-4.41,5.97-6.65,0-4.48-3.33-10.66-7.4-17.17,2.38-4.14,4.62-7.94,6.86-11l.68.14c1.49,3.39,3.05,6.99,4.68,11.13.95,2.24,2.31,3.94,4.89,3.94,1.29,0,2.71-.54,4.14-1.56,2.58-1.83,3.05-6.52,4.14-10.11,1.83-1.29,3.66-2.24,5.36-3.19l.47.41c-.47,1.77-.81,3.53-.81,5.43,0,2.44.48,4.28,1.77,5.63,1.63,1.63,3.53,2.44,5.56,2.44,1.22,0,2.17-.27,2.85-.95-.07-2.44-.88-6.79-2.24-12.49,2.51-2.85,4.96-5.5,7.47-7.8l.88.27c.88,4.89,1.49,9.77,1.49,14.79s-1.36,8.89-3.94,12.62c-2.99,4.34-6.18,7.26-10.04,7.26-2.65,0-5.56-1.09-8.96-4.89h-.34Z"/>
      <path class="cls-25" d="M3043.22,3271.18h-1.15c-9.23,0-15.88-4.68-16.09-17.92-.07-7.74-.68-27.69-2.44-44.39,2.51-2.71,5.16-5.23,7.8-7.53l.95.48c1.09,9.77,1.22,20.9,1.22,30.41,0,7.13-.13,10.72-.13,16.29,0,6.79,2.71,9.09,8.89,9.09h.95v13.57Z"/>
      <path class="cls-25" d="M3090.12,3247.16c-1.83-2.85-4.82-4.68-9.23-4.68-6.24,0-11.74,3.39-14.25,9.37l.27.2c2.17-1.29,4.55-2.1,7.47-2.1,6.24,0,11.54,5.84,11.54,14.12,0,7.13-4.34,16.49-12.76,16.49-7.06,0-12.28-5.7-13.71-14.46l-.34-.07c-2.99,3.39-7.94,5.16-14.86,5.16h-1.02c-3.26,0-4.75-3.53-4.75-6.79s1.49-6.79,4.75-6.79h.95c6.86,0,12.49-1.02,15.68-3.73,3.26-14.53,12.15-23.69,23.48-23.69,5.97,0,9.57,3.19,9.57,8.69,0,2.44-.68,5.16-1.7,8.14l-1.09.14ZM3077.16,3269.83c1.36,0,2.51-.68,2.51-1.49,0-3.6-4-7.6-8.21-7.6-2.38,0-4.28.48-5.7,1.29,2.31,5.36,6.52,7.8,11.4,7.8ZM3072.74,3209.96c3.12,2.78,5.7,5.63,7.74,8.42-1.76,2.58-4,4.89-6.65,6.92-2.58-2.78-5.23-5.43-7.94-8.08l6.86-7.26ZM3087.06,3209.35c3.12,2.78,5.7,5.63,7.74,8.42-1.76,2.58-4,4.89-6.65,6.92-2.58-2.78-5.23-5.43-7.94-8.08l6.86-7.26Z"/>
      <path class="cls-25" d="M3174.96,3230.53c4.41,9.5,7.13,19.34,7.13,29.93,0,4.95-1.63,11.06-4.14,16.7-5.5,7.87-15.88,12.56-24.43,12.56-13.1,0-21.45-9.16-21.45-22.53,0-6.79,1.97-13.98,6.18-21.72l3.73,1.9c-2.24,4.68-3.46,9.09-3.46,12.01,0,14.12,11.81,15.95,16.15,15.95,6.86,0,14.86-3.53,18.73-7.53.88-.95,1.36-2.04,1.36-3.46,0-4.75-2.38-12.01-7.8-22.4,2.04-3.8,4.41-7.47,7.19-11.54l.81.14ZM3154.46,3208.95c4.28,2.71,7.94,5.63,11.06,8.76-1.76,3.26-4,6.52-6.86,9.64-3.53-3.12-7.26-5.97-11.06-8.62l6.86-9.77Z"/>
      <path class="cls-25" d="M3232.38,3257.61v13.57h-5.09c-2.85,12.29-11.4,24.77-21.99,24.77-6.11,0-12.76-2.65-19.96-7.53l1.56-3.6c2.51,1.09,5.23,1.9,8.28,1.9,5.84,0,11.54-2.78,16.97-6.99,3.73-2.85,6.58-5.84,7.87-8.55h-1.9c-12.96,0-21.58-4.14-21.58-16.36,0-4.95,1.7-9.43,5.16-13.51,3.26-3.87,6.92-6.04,10.86-6.04,7.6,0,12.49,8.21,15.2,22.33h4.62ZM3209.3,3246.34c-4.34,0-6.86,3.26-6.86,4.95,0,3.94,6.92,6.52,15.81,6.52.95,0,1.83-.07,2.65-.2-2.51-6.79-6.38-11.27-11.61-11.27Z"/>
      <path class="cls-25" d="M3244.39,3263.17c-1.9,5.02-5.7,8.01-11.2,8.01h-.88c-3.12,0-4.68-3.26-4.68-6.79,0-3.26,1.49-6.79,4.75-6.79h.95c2.1,0,4.07-.68,5.84-1.76,5.29-3.33,4.07-12.83,10.72-19,2.92-2.71,5.91-4,8.96-4,11.33,0,15.14,17.31,15.14,24.84,0,.95-2.44,12.89-11.47,12.89-5.16,0-11.81-2.58-17.92-7.4h-.2ZM3264.48,3257.61c1.29,0,2.1-.2,2.1-.61-1.43-7.6-5.5-12.49-10.04-12.49-3.6,0-6.11,2.17-7.94,5.84,5.29,4.68,10.59,7.26,15.88,7.26Z"/>
      <path class="cls-25" d="M3304.05,3271.18h-1.15c-9.23,0-15.88-4.68-16.08-17.92-.07-7.74-.68-27.69-2.44-44.39,2.51-2.71,5.16-5.23,7.81-7.53l.95.48c1.09,9.77,1.22,20.9,1.22,30.41,0,7.13-.14,10.72-.14,16.29,0,6.79,2.71,9.09,8.89,9.09h.95v13.57Z"/>
      <path class="cls-25" d="M3305,3271.18h-.95c-3.26,0-4.75-3.53-4.75-6.79s1.49-6.79,4.75-6.79h.95c1.9,0,4.95-.34,9.77-1.09-.27-2.38-.48-4.75-.48-7.13.07-9.09,4.41-15.95,10.79-20.63.54-2.58,1.29-5.09,2.17-7.53h1.15c4.48,4.07,9.57,8.08,15.34,12.01,9.77,6.58,17.44,11.54,17.44,21.58,0,3.05-.68,6.11-2.1,9.03-2.44,5.09-6.11,7.33-11.06,7.33-6.24,0-14.25-1.7-23.21-4.28-8.01,3.05-14.52,4.28-19.82,4.28ZM3336.42,3248.79c0-5.09-3.39-10.25-7.6-10.25s-9.3,5.02-9.3,8.21c0,3.39,4.14,6.65,8.76,8.08,5.09-1.15,8.14-3.87,8.14-6.04ZM3350.07,3259.58c2.58,0,4.07-.48,4.07-1.49,0-3.05-4.95-7.06-12.35-11.47-.54,3.87-1.76,7.47-3.46,11,4.41,1.29,8.55,1.97,11.74,1.97Z"/>
      <path class="cls-25" d="M3391.26,3271.18h-1.15c-9.23,0-15.88-4.68-16.09-17.92-.07-7.74-.68-27.69-2.44-44.39,2.51-2.71,5.16-5.23,7.8-7.53l.95.48c1.09,9.77,1.22,20.9,1.22,30.41,0,7.13-.13,10.72-.13,16.29,0,6.79,2.71,9.09,8.89,9.09h.95v13.57Z"/>
      <path class="cls-25" d="M3408.5,3230.66c4.68,8.42,6.86,14.59,6.86,18.94,0,4-.75,8.01-2.78,12.35-2.17,3.94-4.34,5.9-6.65,6.92-3.12,1.42-7.53,2.31-13.71,2.31h-.95c-3.26,0-4.75-3.53-4.75-6.79s1.49-6.79,4.75-6.79h1.49c7.8,0,14.8-1.56,14.8-2.65,0-1.63-3.53-8.48-6.65-13.85,2.31-4,4.62-7.53,6.92-10.59l.68.13ZM3404.09,3282.65c3.6,2.44,6.79,5.09,9.71,7.94-1.49,3.33-3.53,6.11-6.11,8.35-2.78-2.44-6.18-4.96-9.84-7.53l6.24-8.75Z"/>
      <path class="cls-25" d="M3517.5,3257.61v13.57h-3.67c.2,1.09.27,2.17.27,3.33,0,2.51-1.36,5.9-3.53,9.84-9.57,8.42-21.85,12.42-31.36,12.42-15.61,0-25.32-9.77-25.32-26.2,0-8.21,2.85-16.97,7.53-26.06l3.8,1.83c-2.85,6.58-4.21,11.81-4.21,15.81,0,13.85,8.48,20.57,20.43,20.57,8.48,0,17.04-2.17,25.66-8.14-2.58-2.92-9.71-4.21-19.75-4.62l-.95-1.22,6.38-11.13h24.71Z"/>
      <path class="cls-25" d="M3549.27,3271.18h-.88c-6.18,0-11.95-1.22-15.54-7.4h-.2c-3.67,4.82-8.28,7.4-14.19,7.4h-.95c-3.26,0-4.75-3.53-4.75-6.79s1.49-6.79,4.75-6.79h.95c4.55,0,6.99-.95,9.23-2.31,3.73-2.31,4.07-6.65,5.57-9.77,1.56-1.09,3.33-2.31,5.43-3.53l.48.41c-.81,2.85-1.29,4.89-1.29,6.24,0,3.19.75,5.23,3.33,6.99,2.04,1.22,4.34,1.97,7.26,1.97h.81v13.57ZM3524.9,3221.5c3.12,2.78,5.7,5.63,7.74,8.42-1.77,2.58-4,4.89-6.65,6.92-2.58-2.78-5.23-5.43-7.94-8.08l6.85-7.26ZM3539.22,3220.89c3.12,2.78,5.7,5.63,7.74,8.42-1.76,2.58-4,4.89-6.65,6.92-2.58-2.78-5.23-5.43-7.94-8.08l6.85-7.26Z"/>
      <path class="cls-25" d="M3604.92,3236.84c1.36,7.67,1.56,11.4,1.56,15.47,0,3.67-1.77,8.42-4,11.88-3.05,4.21-6.24,6.79-9.91,6.79-3.39,0-6.52-1.77-9.5-5.77h-.14c-3.8,4-7.94,5.97-11.2,5.97-3.46,0-6.52-1.43-7.26-5.36h-.2c-3.39,3.26-7.8,5.36-14.05,5.36h-.95c-3.26,0-4.75-3.53-4.75-6.79s1.49-6.79,4.75-6.79h.95c6.24,0,10.32-1.29,12.76-3.67,1.9-1.76,3.73-4.75,5.29-6.85,2.1-1.09,4.14-1.9,6.11-2.58l.47.75c-2.58,3.94-4.21,7.13-4.21,9.09,0,2.24,1.56,3.26,3.12,3.26,1.7-.07,3.12-.54,4.62-1.29,4.34-2.17,4.62-6.11,5.7-10.32,1.77-1.29,3.46-2.31,5.09-3.19l.61.48c-.75,2.24-1.09,4.41-1.09,6.52s.54,3.87,1.97,5.36c1.43,1.43,3.12,2.24,5.02,2.24,1.56,0,2.85-.41,3.33-1.29-.68-4.07-1.42-8.21-2.51-11.74,2.38-2.65,4.75-5.29,7.47-7.94l.95.41ZM3577.43,3219.53c3.26,2.65,5.97,5.36,8.14,8.01-1.56,2.71-3.73,5.09-6.24,7.26-2.71-2.65-5.5-5.09-8.35-7.6l6.45-7.67ZM3583.2,3204.6c3.26,2.65,5.97,5.36,8.14,8.01-1.56,2.71-3.73,5.09-6.24,7.26-2.71-2.65-5.5-5.09-8.35-7.6l6.45-7.67ZM3592.3,3218.86c3.26,2.65,5.97,5.36,8.14,8.01-1.56,2.71-3.73,5.09-6.24,7.26-2.71-2.65-5.5-5.09-8.35-7.6l6.45-7.67Z"/>
      <path class="cls-25" d="M3618.49,3272c.68-4.82.88-9.84.88-16.36,0-14.66-.68-29.25-2.31-44.12,2.71-3.26,5.29-6.11,7.87-8.62l1.15.61c1.36,14.66,1.56,28.37,1.56,41.54,0,10.66-.61,17.78-2.1,20.09-1.42,2.58-3.26,5.23-5.56,7.94l-1.49-1.09Z"/>
      <path class="cls-25" d="M3644.35,3249.94c0,6.31,3.39,8.62,9.84,8.62,4.28,0,9.16-.95,14.73-3.8-2.04-7.74-8.48-14.05-17.92-19.28-2.31-1.29-3.73-2.44-3.73-4,0-2.24,1.83-6.04,4.34-10.45h.47c6.11,3.87,12.01,8.42,17.1,14.59,4.14,4.96,6.24,10.66,6.24,16.97,0,4.48-1.22,8.89-3.39,12.76-5.36,4.21-11.61,6.72-19,6.72-8.35,0-13.44-4.55-13.44-14.73,0-1.9.07-4.41.41-7.4h4.34Z"/>
      <path class="cls-25" d="M3767.47,3231.07c18.12,13.64,23.01,26.54,34.95,26.54h.95v13.57h-.95c-13.03,0-15.13-6.11-24.37-17.65h-.34c-.75,3.87-2.17,7.33-4.48,10.52-5.29,4.55-19.07,8.01-31.9,8.01-16.83,0-27.15-6.18-27.15-21.52,0-4.28.75-9.3,2.71-15.2l3.73,1.02c-.34,2.17-.68,4.41-.68,6.79,0,10.32,9.09,15,22.87,15,9.77,0,21.65-1.97,27.96-5.7-1.63-4.96-8.08-12.42-18.87-22.26-.68-1.76-1.09-4.07-1.09-6.58,0-3.73.88-6.72,2.65-8.82.95-1.02,2.31-2.04,4-2.92,9.3-4.89,23.35-9.43,38.75-14.18l.54.54c-2.04,4.34-3.94,7.8-5.77,10.93-13.51,3.94-25.04,8.08-33.39,12.08l.07.34c3.6,1.29,7.74,2.65,12.62,4.07l-2.85,5.43Z"/>
      <path class="cls-25" d="M3843.35,3265.62c-1.63,5.36-4.14,8.35-8.01,8.35-5.02,0-12.9-3.94-18.6-10.38h-.27c-2.92,5.84-7.19,7.6-12.15,7.6h-.95c-3.26,0-4.75-3.53-4.75-6.79s1.49-6.79,4.75-6.79h.95c9.3,0,10.45-3.8,12.69-10.72,1.15-3.39,2.65-6.45,5.16-8.75,2.58-2.38,5.23-3.53,7.81-3.53,7.94,0,11,9.03,15.14,17.71,1.76,3.6,5.16,5.29,9.98,5.29h.95v13.57h-.95c-3.94,0-8.35-.81-11.61-5.57h-.14ZM3837.31,3260.32c1.02,0,1.56-.47,1.56-1.43,0-3.39-4.75-13.03-10.66-13.03-2.78,0-5.09,1.56-6.79,4.41,2.44,5.63,11.47,10.04,15.88,10.04Z"/>
      <path class="cls-25" d="M3873.69,3228.42c10.18,8.82,13.1,13.78,13.1,21.65,0,4-1.29,8.14-3.26,12.28-2.85,5.84-11.88,8.82-26.54,8.82h-.95c-3.26,0-4.75-3.53-4.75-6.79s1.49-6.79,4.75-6.79h.95c13.57,0,22.94-2.24,22.94-5.29,0-5.7-9.09-13.64-22.87-22.94-.88-3.05-1.36-5.9-1.36-8.55,0-4.48,2.1-7.81,6.79-9.98,7.06-3.39,19.82-8.08,35.02-13.1l.47.48c-1.76,3.73-3.73,7.53-5.84,11.27-11.54,3.6-21.65,7.2-30.13,10.93v.41c4.82,1.02,9.5,1.76,13.91,2.38l-2.24,5.23Z"/>
    </g>
  </g>
</svg>